<svg width="14" height="17" viewBox="0 0 14 17" fill="none" xmlns="http://www.w3.org/2000/svg">
<path d="M9.997 7.083C9.997 5.017 8.74 3.333 6.667 3.333C4.593 3.333 3.336 5.017 3.336 7.083V12.083H9.997V7.083ZM13.333 12.917V13.75H0V12.917L1.667 11.25V7.083C1.667 4.517 3.033 2.383 5.417 1.817V1.25C5.417 0.558 5.975 0 6.667 0C7.358 0 7.917 0.558 7.917 1.25V1.817C10.308 2.383 11.667 4.525 11.667 7.083V11.25L13.333 12.917ZM5.003 14.583H8.33C8.32921 15.0242 8.15388 15.4471 7.84229 15.7595C7.5307 16.0718 7.10818 16.2482 6.667 16.25C6.22582 16.2482 5.8033 16.0718 5.49171 15.7595C5.18012 15.4471 5.00479 15.0242 5.004 14.583H5.003Z" fill="orange"/>
</svg>
