<svg width="20" height="20" viewBox="0 0 20 20" fill="none" xmlns="http://www.w3.org/2000/svg">
<path d="M17.6873 13.0534L16.1893 13.8484C15.9549 13.972 15.752 14.1478 15.5963 14.3623C15.4406 14.5768 15.3362 14.8242 15.2913 15.0854L14.9983 16.7554C14.9727 16.9062 14.8892 17.0411 14.7655 17.1312C14.6418 17.2212 14.4877 17.2594 14.3363 17.2374L12.6583 17.0004C12.396 16.9622 12.1284 16.985 11.8763 17.0668C11.6241 17.1487 11.3942 17.2874 11.2043 17.4724L9.98631 18.6524C9.87683 18.7593 9.72986 18.8192 9.57681 18.8192C9.42376 18.8192 9.27679 18.7593 9.16731 18.6524L7.94931 17.4724C7.75959 17.2874 7.52984 17.1487 7.27787 17.0668C7.02591 16.985 6.75848 16.9622 6.49631 17.0004L4.81731 17.2374C4.66603 17.2594 4.51213 17.2214 4.38845 17.1315C4.26477 17.0417 4.18111 16.907 4.15531 16.7564L3.86231 15.0854C3.81738 14.8242 3.71304 14.5768 3.55734 14.3623C3.40164 14.1478 3.19874 13.972 2.96431 13.8484L1.46731 13.0534C1.33194 12.9821 1.22975 12.8608 1.18249 12.7153C1.13524 12.5698 1.14665 12.4116 1.21431 12.2744L1.95831 10.7504C2.07546 10.5125 2.13639 10.251 2.13639 9.98586C2.13639 9.72075 2.07546 9.45918 1.95831 9.22136L1.21431 7.69736C1.14665 7.56015 1.13524 7.40195 1.18249 7.25644C1.22975 7.11094 1.33194 6.98963 1.46731 6.91836L2.96431 6.12336C3.19874 5.99973 3.40164 5.8239 3.55734 5.60942C3.71304 5.39494 3.81738 5.14756 3.86231 4.88636L4.15531 3.21636C4.18088 3.06549 4.26444 2.93061 4.38815 2.84054C4.51185 2.75047 4.66588 2.71236 4.81731 2.73436L6.49631 2.97236C6.75855 3.01019 7.02599 2.98721 7.27793 2.90519C7.52988 2.82318 7.75959 2.68432 7.94931 2.49936L9.16731 1.31936C9.27679 1.21241 9.42376 1.15253 9.57681 1.15253C9.72986 1.15253 9.87683 1.21241 9.98631 1.31936L11.2043 2.49936C11.5933 2.87536 12.1223 3.04736 12.6583 2.97236L14.3363 2.73436C14.4877 2.71236 14.6418 2.75047 14.7655 2.84054C14.8892 2.93061 14.9727 3.06549 14.9983 3.21636L15.2913 4.88636C15.3843 5.41936 15.7113 5.87036 16.1893 6.12336L17.6873 6.91836C17.9693 7.06836 18.0803 7.41036 17.9403 7.69836L17.1953 9.22136C17.078 9.45931 17.017 9.72106 17.017 9.98636C17.017 10.2517 17.078 10.5134 17.1953 10.7514L17.9403 12.2744C18.0803 12.5614 17.9693 12.9044 17.6873 13.0534ZM18.2303 10.2394C18.1907 10.1589 18.1701 10.0705 18.1701 9.98086C18.1701 9.89122 18.1907 9.80278 18.2303 9.72236L18.9743 8.19936C19.1744 7.79414 19.2083 7.32679 19.0687 6.89695C18.9292 6.4671 18.6273 6.10878 18.2273 5.89836L16.7293 5.10336C16.65 5.06162 16.5814 5.00223 16.5286 4.92975C16.4759 4.85728 16.4406 4.77366 16.4253 4.68536L16.1333 3.01536C16.0569 2.56977 15.8094 2.17168 15.4436 1.90602C15.0778 1.64036 14.6227 1.52816 14.1753 1.59336L12.4973 1.83136C12.4085 1.8442 12.318 1.83645 12.2327 1.8087C12.1473 1.78096 12.0696 1.73397 12.0053 1.67136L10.7873 0.492359C10.4636 0.176686 10.0294 0 9.57731 0C9.12519 0 8.69098 0.176686 8.36731 0.492359L7.14931 1.67136C7.08506 1.73397 7.00727 1.78096 6.92196 1.8087C6.83665 1.83645 6.7461 1.8442 6.65731 1.83136L4.97831 1.59336C4.53096 1.52847 4.07595 1.64093 3.71035 1.90678C3.34475 2.17262 3.09749 2.57079 3.02131 3.01636L2.72831 4.68636C2.71304 4.77466 2.67768 4.85828 2.62498 4.93075C2.57227 5.00323 2.50361 5.06262 2.42431 5.10436L0.927309 5.89836C0.526922 6.10861 0.224581 6.46704 0.0848279 6.89713C-0.0549254 7.32723 -0.0210191 7.79492 0.179309 8.20036L0.923309 9.72336C1.00331 9.88836 1.00331 10.0764 0.923309 10.2404L0.180309 11.7624C-0.0197102 12.1677 -0.0534488 12.6351 0.0862884 13.065C0.226026 13.4949 0.528179 13.8531 0.928309 14.0634L2.42531 14.8584C2.50461 14.9001 2.57327 14.9595 2.62598 15.032C2.67868 15.1044 2.71404 15.1881 2.72931 15.2764L3.02231 16.9464C3.09848 17.3919 3.34578 17.7899 3.71142 18.0556C4.07706 18.3213 4.53206 18.4335 4.97931 18.3684L6.65831 18.1314C6.7471 18.1185 6.83765 18.1263 6.92296 18.154C7.00827 18.1818 7.08606 18.2288 7.15031 18.2914L8.36831 19.4694C8.6921 19.7848 9.12627 19.9613 9.57831 19.9613C10.0303 19.9613 10.4645 19.7848 10.7883 19.4694L12.0063 18.2904C12.0706 18.2278 12.1484 18.1809 12.2337 18.1531C12.319 18.1254 12.4095 18.1176 12.4983 18.1304L14.1763 18.3684C14.6237 18.4336 15.0788 18.3214 15.4446 18.0557C15.8104 17.79 16.0579 17.3919 16.1343 16.9464L16.4263 15.2764C16.4416 15.1881 16.4769 15.1044 16.5296 15.032C16.5824 14.9595 16.651 14.9001 16.7303 14.8584L18.2283 14.0634C18.628 13.8529 18.9298 13.4948 19.0693 13.0652C19.2088 12.6356 19.1751 12.1685 18.9753 11.7634L18.2303 10.2394Z" fill="#36558F"/>
<path d="M13.7911 5.77924C13.6831 5.67171 13.537 5.61133 13.3846 5.61133C13.2322 5.61133 13.0861 5.67171 12.9781 5.77924L5.3801 13.3772C5.27883 13.4865 5.22384 13.6308 5.22667 13.7797C5.22949 13.9287 5.28993 14.0707 5.39527 14.1761C5.50061 14.2814 5.64268 14.3419 5.79163 14.3447C5.94058 14.3475 6.08484 14.2925 6.1941 14.1912L13.7911 6.59324C13.8989 6.48525 13.9595 6.33886 13.9595 6.18624C13.9595 6.03362 13.8989 5.88724 13.7911 5.77924Z" fill="#36558F"/>
<path d="M7.27992 7.87029C7.03081 7.86225 6.79459 7.75764 6.62121 7.57857C6.44784 7.39951 6.3509 7.16004 6.3509 6.91079C6.3509 6.66155 6.44784 6.42208 6.62121 6.24301C6.79459 6.06395 7.03081 5.95934 7.27992 5.95129C7.53453 5.95129 7.77871 6.05244 7.95874 6.23247C8.13878 6.41251 8.23992 6.65668 8.23992 6.91129C8.23992 7.1659 8.13878 7.41008 7.95874 7.59012C7.77871 7.77015 7.53453 7.87129 7.27992 7.87129V7.87029ZM7.27992 4.80029C6.11692 4.80029 5.16992 5.74729 5.16992 6.91029C5.16992 8.07429 6.11692 9.02129 7.27992 9.02129C8.44492 9.02129 9.39092 8.07429 9.39092 6.91129C9.39092 5.74729 8.44492 4.80029 7.28092 4.80029H7.27992Z" fill="#36558F"/>
<path d="M11.8795 14.0104C11.6304 14.0024 11.3942 13.8978 11.2208 13.7187C11.0474 13.5396 10.9505 13.3002 10.9505 13.0509C10.9505 12.8017 11.0474 12.5622 11.2208 12.3832C11.3942 12.2041 11.6304 12.0995 11.8795 12.0914C12.1341 12.0914 12.3783 12.1926 12.5584 12.3726C12.7384 12.5526 12.8395 12.7968 12.8395 13.0514C12.8395 13.306 12.7384 13.5502 12.5584 13.7303C12.3783 13.9103 12.1341 14.0114 11.8795 14.0114V14.0104ZM11.8795 10.9404C10.7165 10.9404 9.76953 11.8874 9.76953 13.0504C9.76953 14.2144 10.7165 15.1614 11.8795 15.1614C13.0435 15.1614 13.9905 14.2154 13.9905 13.0514C13.9905 11.8874 13.0445 10.9404 11.8805 10.9404H11.8795Z" fill="#36558F"/>
</svg>
