<svg width="20" height="20" viewBox="0 0 20 20" fill="none" xmlns="http://www.w3.org/2000/svg">
<path d="M18.75 18.8142H14.062V16.6312C14.062 15.9912 13.899 15.3892 13.612 14.8632C13.848 14.6199 14.1307 14.4268 14.443 14.2954C14.7554 14.164 15.0911 14.0969 15.43 14.0982H16.21C16.8824 14.0982 17.5274 14.3648 18.0036 14.8396C18.4797 15.3145 18.7481 15.9587 18.75 16.6312V18.8142ZM12.89 18.8142H7.032V16.6312C7.03359 15.9585 7.3019 15.314 7.77807 14.839C8.25424 14.3639 8.89939 14.0972 9.572 14.0972H10.352C11.0246 14.0972 11.6698 14.3639 12.1459 14.839C12.6221 15.314 12.8904 15.9585 12.892 16.6312L12.89 18.8142ZM1.173 16.6312C1.17485 15.9589 1.44314 15.3148 1.91906 14.84C2.39499 14.3652 3.03973 14.0984 3.712 14.0982H4.493C5.187 14.0982 5.835 14.3732 6.312 14.8632C6.01504 15.4051 5.85958 16.0132 5.86 16.6312V18.8142H1.172L1.173 16.6312ZM4.103 10.5812C4.749 10.5812 5.274 11.1102 5.274 11.7592C5.274 12.4082 4.749 12.9362 4.103 12.9362C3.79163 12.9351 3.49338 12.8106 3.27367 12.5899C3.05397 12.3693 2.93073 12.0705 2.931 11.7592C2.931 11.1092 3.456 10.5822 4.103 10.5822V10.5812ZM9.962 10.5812C10.608 10.5812 11.134 11.1102 11.134 11.7592C11.134 12.4082 10.608 12.9362 9.962 12.9362C9.65063 12.9351 9.35238 12.8106 9.13267 12.5899C8.91297 12.3693 8.78973 12.0705 8.79 11.7592C8.79 11.1092 9.316 10.5822 9.962 10.5822V10.5812ZM15.822 10.5812C16.467 10.5812 16.993 11.1102 16.993 11.7592C16.993 12.4082 16.467 12.9362 15.821 12.9362C15.5096 12.9351 15.2114 12.8106 14.9917 12.5899C14.772 12.3693 14.6487 12.0705 14.649 11.7592C14.649 11.1092 15.175 10.5822 15.821 10.5822L15.822 10.5812ZM17.651 13.2162C17.972 12.8152 18.165 12.3062 18.165 11.7542C18.1645 11.1325 17.9172 10.5364 17.4775 10.0969C17.0378 9.65743 16.4417 9.41042 15.82 9.41016C15.1987 9.41095 14.603 9.65819 14.1638 10.0976C13.7245 10.5371 13.4775 11.1328 13.477 11.7542C13.477 12.3052 13.669 12.8132 13.989 13.2142C13.585 13.3842 13.212 13.6252 12.889 13.9312C12.5682 13.6298 12.1964 13.3877 11.791 13.2162C12.111 12.8152 12.305 12.3062 12.305 11.7542C12.3045 11.1325 12.0572 10.5364 11.6175 10.0969C11.1778 9.65743 10.5817 9.41042 9.96 9.41016C9.3385 9.41069 8.7426 9.65781 8.30313 10.0973C7.86366 10.5368 7.61653 11.1327 7.616 11.7542C7.616 12.3072 7.809 12.8142 8.13 13.2162C7.722 13.3892 7.35 13.6322 7.032 13.9312C6.7113 13.6281 6.3387 13.3853 5.932 13.2142C6.252 12.8142 6.444 12.3062 6.444 11.7542C6.44347 11.133 6.19662 10.5374 5.75758 10.098C5.31854 9.65858 4.72316 9.41122 4.102 9.41016C3.4805 9.41069 2.8846 9.65781 2.44513 10.0973C2.00566 10.5368 1.75853 11.1327 1.758 11.7542C1.758 12.3072 1.951 12.8142 2.272 13.2162C1.59924 13.5 1.02498 13.9758 0.620928 14.584C0.216871 15.1922 0.000909033 15.906 0 16.6362L0 19.4102C0 19.7342 0.262 19.9962 0.586 19.9962H19.336C19.4914 19.9962 19.6405 19.9344 19.7504 19.8245C19.8603 19.7146 19.922 19.5656 19.922 19.4102V16.6372C19.9213 15.9068 19.7054 15.1928 19.3013 14.5844C18.8973 13.976 18.3229 13.5001 17.65 13.2162H17.651Z" fill="orange"/>
<path d="M5.85945 1.758C5.85945 1.435 6.12345 1.172 6.44745 1.172H13.4885C13.8125 1.172 14.0755 1.435 14.0755 1.758V5.313C14.0749 5.46834 14.0128 5.61713 13.9028 5.72678C13.7928 5.83643 13.6438 5.898 13.4885 5.898H9.96945C9.84211 5.89807 9.71824 5.93948 9.61645 6.016L8.20745 7.07V6.484C8.20745 6.40696 8.19226 6.33068 8.16275 6.25952C8.13324 6.18835 8.08998 6.12371 8.03546 6.06928C7.98094 6.01485 7.91622 5.97171 7.84501 5.94232C7.7738 5.91293 7.69749 5.89787 7.62045 5.898H6.44745C6.29212 5.898 6.14311 5.83643 6.03309 5.72678C5.92306 5.61713 5.86098 5.46834 5.86045 5.313L5.85945 1.758ZM6.44745 7.07H7.03345V8.242C7.03345 8.727 7.58745 8.999 7.97045 8.711L10.1585 7.071H13.4785C13.9445 7.07047 14.3914 6.88508 14.721 6.55551C15.0505 6.22593 15.2359 5.77909 15.2365 5.313V1.758C15.2359 1.29191 15.0505 0.845065 14.721 0.515491C14.3914 0.185917 13.9445 0.000529345 13.4785 0L6.44745 0C5.98136 0.000529345 5.53452 0.185917 5.20494 0.515491C4.87537 0.845065 4.68998 1.29191 4.68945 1.758V5.313C4.68945 6.282 5.47845 7.07 6.44745 7.07Z" fill="orange"/>
</svg>
