<svg width="17" height="15" viewBox="0 0 17 15" fill="none" xmlns="http://www.w3.org/2000/svg">
<path d="M8.42039 12.9489L8.33739 13.0319L8.2534 12.9489C4.2874 9.35987 1.6714 6.98787 1.6714 4.58087C1.6714 2.91587 2.9214 1.66687 4.5874 1.66687C5.8704 1.66687 7.1204 2.49087 7.5624 3.63187H9.12039C9.55339 2.49187 10.8034 1.66687 12.0864 1.66687C13.7534 1.66687 15.0024 2.91687 15.0024 4.58087C15.0024 6.98787 12.3864 9.36087 8.42039 12.9489ZM8.33739 1.74187C6.87039 0.0258739 4.1534 -0.683126 1.9534 0.825874C1.37369 1.22981 0.895785 1.76292 0.557377 2.38316C0.21897 3.0034 0.0293217 3.6938 0.00339522 4.39987C-0.112605 7.63287 2.7534 10.2249 7.1284 14.1999L7.2124 14.2749C7.51985 14.553 7.92008 14.7062 8.33464 14.7045C8.7492 14.7029 9.14819 14.5464 9.45339 14.2659L9.54539 14.1829C13.9204 10.2159 16.7784 7.62487 16.6704 4.39087C16.6435 3.68612 16.4533 2.99723 16.115 2.37844C15.7766 1.75964 15.2992 1.22783 14.7204 0.824874C12.5204 -0.675126 9.80339 0.0248737 8.33739 1.74087V1.74187Z" fill="#36558F"/>
</svg>
