<svg width="44" height="44" viewBox="0 0 44 44" fill="none" xmlns="http://www.w3.org/2000/svg">
<circle r="22" transform="matrix(-1 0 0 1 22 22)" fill="#73AECF"/>
<path d="M16.717 26.168C16.0544 26.168 15.443 26.0467 14.883 25.804C14.3324 25.552 13.8797 25.1973 13.525 24.74L14.785 23.228C15.317 23.9467 15.9237 24.306 16.605 24.306C17.529 24.306 17.991 23.7647 17.991 22.682V18.02H14.547V16.2H20.245V22.556C20.245 23.76 19.9464 24.6653 19.349 25.272C18.7517 25.8693 17.8744 26.168 16.717 26.168ZM25.7052 26.168C24.9306 26.168 24.1792 26.0653 23.4512 25.86C22.7326 25.6453 22.1539 25.37 21.7152 25.034L22.4852 23.326C22.9052 23.634 23.4046 23.8813 23.9832 24.068C24.5619 24.2547 25.1406 24.348 25.7192 24.348C26.3632 24.348 26.8392 24.2547 27.1472 24.068C27.4552 23.872 27.6092 23.6153 27.6092 23.298C27.6092 23.0647 27.5159 22.8733 27.3292 22.724C27.1519 22.5653 26.9186 22.4393 26.6292 22.346C26.3492 22.2527 25.9666 22.15 25.4812 22.038C24.7346 21.8607 24.1232 21.6833 23.6472 21.506C23.1712 21.3287 22.7606 21.044 22.4152 20.652C22.0792 20.26 21.9112 19.7373 21.9112 19.084C21.9112 18.5147 22.0652 18.0013 22.3732 17.544C22.6812 17.0773 23.1432 16.7087 23.7592 16.438C24.3846 16.1673 25.1452 16.032 26.0412 16.032C26.6666 16.032 27.2779 16.1067 27.8752 16.256C28.4726 16.4053 28.9952 16.62 29.4432 16.9L28.7432 18.622C27.8379 18.1087 26.9326 17.852 26.0272 17.852C25.3926 17.852 24.9212 17.9547 24.6132 18.16C24.3146 18.3653 24.1652 18.636 24.1652 18.972C24.1652 19.308 24.3379 19.56 24.6832 19.728C25.0379 19.8867 25.5746 20.0453 26.2932 20.204C27.0399 20.3813 27.6512 20.5587 28.1272 20.736C28.6032 20.9133 29.0092 21.1933 29.3452 21.576C29.6906 21.9587 29.8632 22.4767 29.8632 23.13C29.8632 23.69 29.7046 24.2033 29.3872 24.67C29.0792 25.1273 28.6126 25.4913 27.9872 25.762C27.3619 26.0327 26.6012 26.168 25.7052 26.168Z" fill="white"/>
</svg>
