<svg width="35" height="31" viewBox="0 0 35 31" fill="none" xmlns="http://www.w3.org/2000/svg">
<path d="M17.139 6.12403C17.7209 5.22935 18.2328 4.45934 18.7228 3.68059C21.3675 -0.497531 26.9675 -0.967843 30.5747 1.54341C33.0181 3.24528 34.2409 5.6056 34.3437 8.59153C34.4378 11.6409 33.25 14.2265 31.5875 16.659C30.4937 18.2559 29.1178 19.599 27.7068 20.9072C24.4052 23.9697 21.1093 27.0322 17.8193 30.0947C17.2528 30.6219 17.1172 30.6328 16.5418 30.0947C12.7597 26.5837 8.96871 23.0881 5.23465 19.5268C2.79778 17.1993 0.979964 14.4628 0.264651 11.0962C-0.531599 7.37747 0.452776 4.20341 3.43653 1.76872C5.85809 -0.204405 10.2812 -0.716281 13.1862 1.21091C14.6234 2.16247 15.6581 3.46403 16.4828 4.95153C16.6797 5.31028 16.8809 5.66466 17.139 6.12403ZM6.22778 18.5337C6.27703 18.6106 6.33187 18.6837 6.39184 18.7525C8.96434 21.1996 11.539 23.6452 14.1159 26.0893C14.2584 26.2225 14.4154 26.3392 14.584 26.4372C15.0937 26.7303 15.4043 26.6559 15.6362 26.1112C15.8562 25.6229 16.012 25.1082 16.1 24.58C16.5086 21.7001 16.0716 18.7636 14.8422 16.1275C13.9409 14.1587 12.5278 12.7237 10.4103 12.0697C9.50465 11.7897 8.59246 11.5315 7.70215 11.2122C6.45309 10.7747 5.83621 9.60872 6.09434 8.30497C6.33496 7.08653 6.92559 6.60966 8.17684 6.63591C8.37109 6.6409 8.56477 6.65917 8.75653 6.6906C11.1912 7.08216 13.254 8.20216 15.0215 9.89528L15.6778 10.5143C15.774 9.01372 15.8703 7.68372 15.9337 6.3581C15.9297 6.14081 15.8527 5.93121 15.715 5.7631C15.2356 5.09131 14.7054 4.45727 14.129 3.86653C12.04 1.89778 8.66028 1.28309 5.9784 3.05278C4.33958 4.12704 3.05431 5.66114 2.28371 7.46278C1.57059 9.1056 1.74996 10.6872 2.73653 12.19C3.63699 13.5317 4.91844 14.5731 6.4159 15.1803C7.10715 15.4712 7.83996 15.6659 8.54215 15.9393C9.60309 16.355 10.6947 16.7203 11.6965 17.2518C12.939 17.9081 13.7156 19.7806 13.475 21.1478C13.3787 21.6881 13.1556 21.8193 12.6656 21.5853C12.3156 21.419 11.9831 21.209 11.6506 21.01C9.92642 20.0129 8.11049 19.1836 6.22778 18.5337ZM27.4968 18.6628L27.4247 18.514C26.6393 18.8247 25.8562 19.1418 25.0687 19.4437C24.5301 19.6648 23.9803 19.8575 23.4215 20.0212C22.6253 20.2247 22.109 19.9818 21.8772 19.2053C21.6561 18.4877 21.5484 17.7401 21.5578 16.9893C21.6256 15.3137 21.7765 13.6403 21.9647 11.9734C22.06 10.829 22.3978 9.71789 22.9556 8.71403C23.7672 7.34028 24.9243 6.54841 26.5847 6.54622C28.0219 6.5359 29.4489 6.78794 30.7956 7.28997C30.9837 7.35997 31.1828 7.39497 31.4518 7.46716C31.4189 7.2884 31.3758 7.11166 31.3228 6.93778C30.4084 4.50528 28.6759 2.96528 26.1843 2.2806C25.4419 2.03987 24.6576 1.9557 23.8809 2.03341C22.1462 2.27841 20.895 3.20372 20.1862 4.77434C19.7931 5.68613 19.4799 6.63029 19.25 7.59622C18.71 9.81953 18.3934 12.0912 18.305 14.3775C18.1868 16.7597 18.0862 19.1418 18.3772 21.5175C18.4668 22.5647 18.7994 23.5766 19.3484 24.4728C19.7487 25.0853 20.1425 25.1815 20.7593 24.7943C21.0631 24.593 21.3486 24.3653 21.6125 24.114C22.7281 23.0932 23.8372 22.0724 24.9397 21.0515C25.8125 20.2575 26.6481 19.4569 27.4968 18.6606V18.6628Z" fill="#F77D0E"/>
</svg>
