<svg width="175" height="31" viewBox="0 0 175 31" fill="none" xmlns="http://www.w3.org/2000/svg">
<path d="M17.139 6.12403C17.7209 5.22935 18.2328 4.45934 18.7228 3.68059C21.3675 -0.497531 26.9675 -0.967843 30.5747 1.54341C33.0181 3.24528 34.2409 5.6056 34.3437 8.59153C34.4378 11.6409 33.25 14.2265 31.5875 16.659C30.4937 18.2559 29.1178 19.599 27.7068 20.9072C24.4052 23.9697 21.1093 27.0322 17.8193 30.0947C17.2528 30.6219 17.1172 30.6328 16.5418 30.0947C12.7597 26.5837 8.96871 23.0881 5.23465 19.5268C2.79778 17.1993 0.979964 14.4628 0.264651 11.0962C-0.531599 7.37747 0.452776 4.20341 3.43653 1.76872C5.85809 -0.204405 10.2812 -0.716281 13.1862 1.21091C14.6234 2.16247 15.6581 3.46403 16.4828 4.95153C16.6797 5.31028 16.8809 5.66466 17.139 6.12403ZM6.22778 18.5337C6.27703 18.6106 6.33187 18.6837 6.39184 18.7525C8.96434 21.1996 11.539 23.6452 14.1159 26.0893C14.2584 26.2225 14.4154 26.3392 14.584 26.4372C15.0937 26.7303 15.4043 26.6559 15.6362 26.1112C15.8562 25.6229 16.012 25.1082 16.1 24.58C16.5086 21.7001 16.0716 18.7636 14.8422 16.1275C13.9409 14.1587 12.5278 12.7237 10.4103 12.0697C9.50465 11.7897 8.59246 11.5315 7.70215 11.2122C6.45309 10.7747 5.83621 9.60872 6.09434 8.30497C6.33496 7.08653 6.92559 6.60966 8.17684 6.63591C8.37109 6.6409 8.56477 6.65917 8.75653 6.6906C11.1912 7.08216 13.254 8.20216 15.0215 9.89528L15.6778 10.5143C15.774 9.01372 15.8703 7.68372 15.9337 6.3581C15.9297 6.14081 15.8527 5.93121 15.715 5.7631C15.2356 5.09131 14.7054 4.45727 14.129 3.86653C12.04 1.89778 8.66028 1.28309 5.9784 3.05278C4.33958 4.12704 3.05431 5.66114 2.28371 7.46278C1.57059 9.1056 1.74996 10.6872 2.73653 12.19C3.63699 13.5317 4.91844 14.5731 6.4159 15.1803C7.10715 15.4712 7.83996 15.6659 8.54215 15.9393C9.60309 16.355 10.6947 16.7203 11.6965 17.2518C12.939 17.9081 13.7156 19.7806 13.475 21.1478C13.3787 21.6881 13.1556 21.8193 12.6656 21.5853C12.3156 21.419 11.9831 21.209 11.6506 21.01C9.92642 20.0129 8.11049 19.1836 6.22778 18.5337ZM27.4968 18.6628L27.4247 18.514C26.6393 18.8247 25.8562 19.1418 25.0687 19.4437C24.5301 19.6648 23.9803 19.8575 23.4215 20.0212C22.6253 20.2247 22.109 19.9818 21.8772 19.2053C21.6561 18.4877 21.5484 17.7401 21.5578 16.9893C21.6256 15.3137 21.7765 13.6403 21.9647 11.9734C22.06 10.829 22.3978 9.71789 22.9556 8.71403C23.7672 7.34028 24.9243 6.54841 26.5847 6.54622C28.0219 6.5359 29.4489 6.78794 30.7956 7.28997C30.9837 7.35997 31.1828 7.39497 31.4518 7.46716C31.4189 7.2884 31.3758 7.11166 31.3228 6.93778C30.4084 4.50528 28.6759 2.96528 26.1843 2.2806C25.4419 2.03987 24.6576 1.9557 23.8809 2.03341C22.1462 2.27841 20.895 3.20372 20.1862 4.77434C19.7931 5.68613 19.4799 6.63029 19.25 7.59622C18.71 9.81953 18.3934 12.0912 18.305 14.3775C18.1868 16.7597 18.0862 19.1418 18.3772 21.5175C18.4668 22.5647 18.7994 23.5766 19.3484 24.4728C19.7487 25.0853 20.1425 25.1815 20.7593 24.7943C21.0631 24.593 21.3486 24.3653 21.6125 24.114C22.7281 23.0932 23.8372 22.0724 24.9397 21.0515C25.8125 20.2575 26.6481 19.4569 27.4968 18.6606V18.6628Z" fill="#F77D0E"/>
<path d="M62.9671 8.74235C62.9234 9.16454 62.8927 9.47298 62.8555 9.85142C63.1115 9.6961 63.3083 9.56485 63.5118 9.45548C65.9443 8.1561 68.3615 8.14298 70.6955 9.65673C72.1896 10.6302 72.9902 12.098 73.2068 13.8414C73.5874 16.8842 72.7802 19.5552 70.4243 21.6005C68.368 23.3855 65.9377 23.8252 63.3127 23.2477C62.4498 23.0579 61.6639 22.6127 61.0574 21.9702C60.9655 21.8739 60.8562 21.7886 60.6812 21.6333C60.4449 22.8124 60.224 23.9017 60.0052 24.9911C59.8083 25.9689 59.6093 26.9445 59.419 27.9224C59.3643 28.2111 59.2702 28.432 58.918 28.4299C57.7018 28.4189 56.4855 28.4189 55.2693 28.408C55.2058 28.408 55.1402 28.3555 54.9958 28.292C55.1293 27.592 55.2583 26.8833 55.4005 26.1745C56.5074 20.6241 57.6157 15.0737 58.7255 9.52329C58.8808 8.74673 58.8896 8.74454 59.6552 8.74235H62.9671ZM68.893 15.4361C68.8755 15.1452 68.8799 14.8499 68.834 14.5611C68.6677 13.5527 68.1449 12.787 67.1693 12.4327C65.4959 11.8224 63.4768 12.2489 62.3874 14.0142C61.8678 14.8692 61.6114 15.8582 61.6502 16.858C61.6896 18.2645 62.3502 19.2227 63.5096 19.623C64.3551 19.915 65.2747 19.9118 66.1182 19.6138C66.9617 19.3158 67.6792 18.7407 68.1537 17.9824C68.6256 17.216 68.8812 16.3361 68.893 15.4361Z" fill="#F77D0E"/>
<path d="M38.2812 21.4519L40.1122 17.9869C40.3506 18.116 40.5256 18.2056 40.6853 18.2975C42.6526 19.5449 44.9838 20.0907 47.3003 19.8463C47.8302 19.7776 48.3492 19.6416 48.8447 19.4416C49.1377 19.3245 49.4018 19.1454 49.6191 18.9166C50.2994 18.2166 50.2009 17.2606 49.3763 16.7291C48.961 16.4759 48.5166 16.2739 48.0528 16.1275C47.2238 15.8519 46.375 15.6353 45.5394 15.375C44.5553 15.108 43.6156 14.6982 42.7503 14.1588C42.1496 13.78 41.658 13.2511 41.3243 12.6242C40.9905 11.9974 40.8261 11.2943 40.8472 10.5844C40.8472 7.99221 42.1597 6.23565 44.4259 5.11565C45.6412 4.54622 46.9554 4.21786 48.2956 4.14877C50.5575 3.97815 52.7625 4.23846 54.8581 5.13752C55.2322 5.29721 55.58 5.51377 56.0109 5.74127C55.5034 6.94002 54.95 8.03377 54.3266 9.19533C54.0641 9.06408 53.8344 8.95252 53.6091 8.8344C51.7216 7.83093 49.5379 7.53459 47.4513 7.99877C46.9559 8.11738 46.489 8.333 46.0775 8.63315C45.2375 9.23033 44.9488 10.5691 46.2788 11.2341C46.9166 11.5289 47.5745 11.7782 48.2475 11.98C49.0547 12.2469 49.8794 12.4591 50.6888 12.7194C51.0839 12.8465 51.4698 13.0007 51.8438 13.181C54.2675 14.336 55.125 16.3331 54.3397 18.91C53.8803 20.4063 52.9113 21.4847 51.5813 22.2635C50.1956 23.0385 48.648 23.479 47.0619 23.5497C44.3691 23.7378 41.7747 23.331 39.3422 22.1038C38.9988 21.9331 38.6859 21.7056 38.2812 21.4519Z" fill="#F77D0E"/>
<path d="M175 8.9744L167.665 15.0994C169.249 17.8031 170.931 20.4281 172.567 23.2216C172.213 23.2631 172.007 23.3047 171.802 23.3069C170.61 23.3069 169.417 23.2916 168.225 23.32C168.021 23.3395 167.817 23.2966 167.638 23.197C167.459 23.0974 167.314 22.9457 167.223 22.7622C166.366 21.3206 165.473 19.8966 164.598 18.466C164.474 18.2625 164.338 18.0678 164.161 17.7966C163.376 18.4528 162.63 19.061 161.899 19.6997C161.776 19.8511 161.7 20.0351 161.68 20.2291C161.523 20.9663 161.385 21.7056 161.243 22.445C161.19 22.7031 161.118 22.9569 161.042 23.2566H156.807C156.804 23.0329 156.817 22.8093 156.844 22.5872C157.573 18.8933 158.31 15.2 159.055 11.5075C159.556 9.00502 160.058 6.50398 160.562 4.00439C160.696 3.34814 160.707 3.34814 161.365 3.34814C162.363 3.34814 163.36 3.34814 164.358 3.34814C164.546 3.34814 164.732 3.38533 165.034 3.41814C164.336 6.93346 163.649 10.3985 162.96 13.8635L163.085 13.9685C163.266 13.8438 163.454 13.7278 163.625 13.59C165.417 12.1288 167.21 10.6741 168.987 9.19533C169.33 8.88843 169.779 8.7262 170.24 8.74252C171.579 8.76658 172.915 8.74252 174.254 8.74252C174.486 8.74252 174.716 8.76658 174.947 8.77971L175 8.9744Z" fill="#F77D0E"/>
<path d="M125.501 3.38525H129.686C129.66 4.479 129.327 5.50494 129.143 6.54182C128.96 7.57869 128.743 8.6265 128.522 9.77494C128.793 9.63713 128.96 9.55619 129.124 9.46651C129.95 8.99334 130.862 8.68828 131.806 8.56889C132.751 8.44951 133.71 8.51815 134.627 8.77088C136.671 9.29369 137.909 10.8906 138.042 12.9971C138.134 14.3599 137.795 15.6549 137.541 16.9631C137.18 18.8246 136.791 20.6818 136.415 22.539C136.266 23.2784 136.257 23.2959 135.527 23.3003C134.602 23.3003 133.677 23.3003 132.751 23.3003C132.514 23.3003 132.278 23.2674 131.981 23.2456C131.988 23.0377 132.006 22.8303 132.035 22.6243C132.514 20.2181 133 17.8118 133.472 15.4056C133.538 15.0721 133.567 14.7325 133.558 14.3928C133.534 13.1743 132.836 12.459 131.615 12.3649C129.572 12.2074 128.115 13.1393 127.505 15.1059C127.177 16.1712 127.006 17.2934 126.781 18.3871C126.489 19.8455 126.198 21.3002 125.906 22.7512C125.845 23.0684 125.755 23.3178 125.37 23.3134C124.154 23.3024 122.937 23.2959 121.721 23.2828C121.68 23.2828 121.638 23.2412 121.597 23.2171C121.531 22.6353 125.11 4.3915 125.501 3.38525Z" fill="#F77D0E"/>
<path d="M121.936 7.55026L118.759 10.1534C118.634 10.0654 118.516 9.96655 118.407 9.85808C117.152 8.30933 115.461 7.83901 113.575 8.01839C110.204 8.34214 107.888 10.6718 107.45 14.0471C107.322 14.8648 107.357 15.6997 107.553 16.5037C107.722 17.2076 108.082 17.8511 108.594 18.3636C109.105 18.8761 109.748 19.2377 110.451 19.4087C112.868 20.0868 115.073 19.6668 116.977 17.9606C117.119 17.8337 117.274 17.72 117.486 17.5493L120.129 20.2378C119.877 20.52 119.691 20.7671 119.472 20.9815C118.037 22.3575 116.294 23.1165 114.354 23.4228C112.501 23.7454 110.599 23.652 108.787 23.1493C105.556 22.2131 103.412 20.1765 102.933 16.7837C102.217 11.689 104.862 6.50245 110.421 4.71964C112.885 3.89197 115.547 3.85831 118.031 4.62339C119.4 5.00792 120.617 5.80451 121.518 6.90495C121.643 7.07995 121.747 7.26808 121.936 7.55026Z" fill="#F77D0E"/>
<path d="M155.431 17.2017C151.826 17.2017 148.243 17.2017 144.659 17.2017C144.67 18.4727 145.296 19.3674 146.449 19.6889C147.255 19.9315 148.104 20.0029 148.94 19.8986C149.776 19.7942 150.581 19.5164 151.303 19.083C151.522 18.9605 151.707 18.8205 151.902 18.6936C152.34 18.9999 153.256 20.3539 153.801 21.5111C153.525 21.7124 153.252 21.9486 152.948 22.128C151.519 22.9766 149.893 23.4359 148.232 23.4602C147.186 23.5121 146.137 23.4104 145.121 23.1583C141.553 22.1958 139.998 19.2974 140.348 16.0533C140.543 14.2377 141.155 12.6014 142.398 11.2408C144.329 9.12549 146.794 8.39706 149.579 8.55237C150.484 8.59593 151.374 8.80424 152.204 9.16706C154.217 10.0596 155.354 11.6236 155.704 13.7761C155.868 14.9242 155.774 16.0942 155.431 17.2017ZM144.953 14.5636H151.609C151.689 14.0382 151.579 13.5015 151.298 13.0503C151.017 12.5991 150.585 12.263 150.078 12.1027C149.084 11.734 147.986 11.7662 147.015 12.1924C145.981 12.643 145.313 13.4261 144.953 14.5636Z" fill="#F77D0E"/>
<path d="M93.66 8.99617C93.8525 8.07086 94.0362 7.16742 94.2287 6.26617C94.3775 5.5793 94.3819 5.57273 95.0884 5.56836C96.0378 5.56836 96.9857 5.56836 97.9322 5.56836C98.1509 5.56836 98.3565 5.60117 98.6803 5.62742C98.4747 6.77367 98.2778 7.85649 98.0634 9.0443H101.5C101.5 9.28552 101.486 9.52655 101.458 9.76617C101.329 10.4596 101.185 11.1487 101.043 11.8399C100.92 12.4262 100.87 12.4765 100.275 12.4962C99.5706 12.4962 98.864 12.4962 98.1597 12.4962H97.3722C97.2344 13.1284 97.0965 13.7124 96.9762 14.3009C96.7414 15.4675 96.5125 16.6342 96.2894 17.8009C96.2428 18.0393 96.2114 18.2804 96.1953 18.5227C96.1275 19.5268 96.6153 20.054 97.7944 19.9534C98.269 19.9118 98.7284 19.7084 99.2337 19.5684C99.2731 19.6143 99.3694 19.6777 99.3869 19.7587C99.5619 20.5396 99.7172 21.3271 99.89 22.1081C99.9709 22.4777 99.8594 22.7337 99.4962 22.8474C98.9063 23.068 98.3009 23.245 97.685 23.3768C96.5759 23.5474 95.4581 23.5627 94.3709 23.1799C92.7412 22.6046 91.7459 21.3293 91.7678 19.6077C91.8113 18.6633 91.9313 17.724 92.1265 16.799C92.3453 15.5302 92.6231 14.2724 92.8703 13.008C92.8903 12.8345 92.9005 12.6599 92.9009 12.4852H90.8447C90.9409 11.293 91.2297 10.2496 91.4484 9.17117C92.1637 8.92398 92.879 9.15367 93.66 8.99617Z" fill="#F77D0E"/>
<path d="M78.3125 3.38086H82.5803C82.5958 3.55405 82.5958 3.72829 82.5803 3.90148C81.5142 9.28128 80.4438 14.6691 79.369 20.0649C79.1918 20.9399 79.0147 21.8281 78.844 22.7096C78.7784 23.0465 78.68 23.3112 78.2556 23.3068C77.0875 23.2937 75.9193 23.3068 74.7556 23.2915C74.6272 23.2649 74.5019 23.2253 74.3815 23.1734C75.6897 16.5802 77 9.98274 78.3125 3.38086Z" fill="#F77D0E"/>
<path d="M82.3637 23.2873C83.3437 18.3633 84.2931 13.588 85.2468 8.79297H89.5256C89.4906 9.08172 89.4775 9.31797 89.4315 9.54547C88.5813 13.8344 87.7318 18.1234 86.8831 22.4123C86.8604 22.6054 86.8118 22.7945 86.7387 22.9745C86.6709 23.1036 86.52 23.2698 86.3887 23.272C85.1068 23.2939 83.8228 23.2873 82.3637 23.2873Z" fill="#F77D0E"/>
<path d="M88.0272 6.95734C87.8637 6.95047 87.7008 6.93367 87.5394 6.90702C86.3778 6.67734 85.645 5.8614 85.6165 4.77202C85.5789 4.18457 85.7554 3.60338 86.1134 3.13604C86.4713 2.66871 86.9865 2.34689 87.5634 2.23015C88.0601 2.13137 88.5703 2.121 89.0706 2.19952C90.0419 2.34171 90.744 2.89515 90.9322 3.88827C91.0368 4.35491 91.0008 4.84208 90.8287 5.28827C90.6566 5.73445 90.3562 6.11963 89.9653 6.39515C89.4272 6.8064 88.7884 6.95077 88.0272 6.95734Z" fill="#F77D0E"/>
</svg>
