<svg width="20" height="20" viewBox="0 0 20 20" fill="none" xmlns="http://www.w3.org/2000/svg">
<path d="M18.284 17.596C18.0287 17.2943 17.719 17.0433 17.371 16.856C17.5427 16.5907 17.6397 16.284 17.652 15.9682C17.6642 15.6525 17.5912 15.3392 17.4406 15.0614C17.2901 14.7835 17.0675 14.5514 16.7962 14.3892C16.5249 14.2271 16.215 14.141 15.899 14.14C15.5827 14.1407 15.2725 14.2267 15.001 14.3888C14.7294 14.5509 14.5066 14.7831 14.3558 15.0612C14.2051 15.3392 14.1321 15.6527 14.1444 15.9687C14.1568 16.2847 14.254 16.5916 14.426 16.857C14.078 17.0443 13.7683 17.2953 13.513 17.597C13.1584 17.1015 12.9682 16.5073 12.969 15.898C12.9698 15.1212 13.2787 14.3764 13.8281 13.8271C14.3774 13.2777 15.1222 12.9688 15.899 12.968C16.6758 12.9688 17.4206 13.2777 17.9699 13.8271C18.5193 14.3764 18.8282 15.1212 18.829 15.898C18.829 16.531 18.626 17.117 18.284 17.596ZM15.898 16.484C15.8189 16.4871 15.7401 16.4742 15.6661 16.4461C15.5922 16.418 15.5246 16.3752 15.4677 16.3203C15.4107 16.2654 15.3653 16.1996 15.3344 16.1268C15.3035 16.0539 15.2877 15.9756 15.2878 15.8965C15.2879 15.8173 15.3041 15.7391 15.3352 15.6663C15.3664 15.5936 15.4119 15.5279 15.4691 15.4732C15.5263 15.4185 15.5939 15.376 15.668 15.3481C15.742 15.3202 15.8209 15.3076 15.9 15.311C16.0514 15.3175 16.1943 15.3823 16.299 15.4918C16.4037 15.6012 16.4621 15.747 16.4618 15.8985C16.4615 16.05 16.4027 16.1955 16.2976 16.3046C16.1926 16.4137 16.0494 16.478 15.898 16.484ZM14.371 18.397C14.5538 18.1671 14.786 17.9813 15.0503 17.8532C15.3146 17.7251 15.6043 17.6581 15.898 17.657C16.498 17.657 17.059 17.937 17.426 18.397C16.981 18.67 16.458 18.828 15.898 18.828C15.339 18.828 14.816 18.67 14.371 18.398V18.397ZM2.574 12.5C2.75682 12.2698 2.98908 12.0837 3.25358 11.9554C3.51808 11.8272 3.80804 11.76 4.102 11.759C4.702 11.759 5.262 12.039 5.629 12.499C5.16975 12.782 4.64092 12.9318 4.1015 12.9318C3.56208 12.9318 3.03325 12.782 2.574 12.499V12.5ZM3.516 10.006C3.516 9.85021 3.57761 9.70075 3.68739 9.59021C3.79717 9.47968 3.94622 9.41706 4.102 9.416C4.25761 9.41732 4.4064 9.48006 4.51596 9.59056C4.62553 9.70107 4.68701 9.85038 4.687 10.006C4.68727 10.1618 4.62591 10.3114 4.51632 10.4221C4.40672 10.5328 4.25778 10.5957 4.102 10.597C3.94604 10.5959 3.79685 10.5332 3.68704 10.4224C3.57723 10.3117 3.51573 10.162 3.516 10.006ZM1.172 10C1.17279 9.22316 1.48174 8.47836 2.03105 7.92905C2.58036 7.37974 3.32516 7.07079 4.102 7.07C4.87884 7.07079 5.62364 7.37974 6.17295 7.92905C6.72226 8.47836 7.03121 9.22316 7.032 10C7.032 10.632 6.829 11.218 6.487 11.698C6.23172 11.3963 5.92201 11.1453 5.574 10.958C5.74566 10.6927 5.84271 10.386 5.85496 10.0702C5.86721 9.75445 5.79422 9.4412 5.64364 9.16337C5.49306 8.88553 5.27045 8.65336 4.99919 8.49124C4.72793 8.32912 4.41802 8.24303 4.102 8.242C3.7859 8.24285 3.47586 8.32881 3.20446 8.49086C2.93305 8.65291 2.7103 8.88506 2.5596 9.16293C2.4089 9.44079 2.33582 9.75412 2.34803 10.07C2.36024 10.3858 2.4573 10.6926 2.629 10.958C2.28101 11.1453 1.9713 11.3963 1.716 11.698C1.36164 11.2028 1.1714 10.6089 1.172 10ZM18.828 4.102C18.828 4.734 18.626 5.32 18.284 5.799C18.0286 5.49769 17.7189 5.24701 17.371 5.06C17.5427 4.79467 17.6397 4.48801 17.652 4.17223C17.6642 3.85645 17.5912 3.5432 17.4406 3.26537C17.2901 2.98753 17.0675 2.75536 16.7962 2.59324C16.5249 2.43112 16.215 2.34503 15.899 2.344C15.5829 2.34485 15.2729 2.43081 15.0015 2.59286C14.7301 2.75491 14.5073 2.98706 14.3566 3.26493C14.2059 3.54279 14.1328 3.85612 14.145 4.17198C14.1572 4.48785 14.2543 4.7946 14.426 5.06C14.078 5.24729 13.7683 5.49831 13.513 5.8C13.1586 5.30477 12.9684 4.71095 12.969 4.102C12.9698 3.32516 13.2787 2.58036 13.8281 2.03105C14.3774 1.48174 15.1222 1.17279 15.899 1.172C16.6758 1.17279 17.4206 1.48174 17.9699 2.03105C18.5193 2.58036 18.8282 3.32516 18.829 4.102H18.828ZM15.313 4.102C15.3097 4.02294 15.3225 3.94404 15.3505 3.87004C15.3785 3.79603 15.4212 3.72845 15.476 3.67136C15.5307 3.61427 15.5965 3.56884 15.6693 3.53781C15.7421 3.50677 15.8204 3.49078 15.8995 3.49078C15.9786 3.49078 16.0569 3.50677 16.1297 3.53781C16.2025 3.56884 16.2683 3.61427 16.323 3.67136C16.3778 3.72845 16.4205 3.79603 16.4485 3.87004C16.4765 3.94404 16.4893 4.02294 16.486 4.102C16.486 4.25768 16.4242 4.40699 16.3141 4.51707C16.204 4.62716 16.0547 4.689 15.899 4.689C15.7433 4.689 15.594 4.62716 15.4839 4.51707C15.3738 4.40699 15.312 4.25768 15.312 4.102H15.313ZM14.37 6.6C14.5528 6.37012 14.785 6.18427 15.0493 6.05619C15.3136 5.9281 15.6033 5.86105 15.897 5.86C16.497 5.86 17.058 6.14 17.425 6.6C16.98 6.873 16.457 7.031 15.897 7.031C15.338 7.031 14.815 6.873 14.37 6.601V6.6ZM15.897 11.797C15.1426 11.7976 14.403 12.0061 13.7593 12.3994C13.1156 12.7928 12.5927 13.356 12.248 14.027L7.91 11.522C8.10402 11.038 8.20348 10.5214 8.203 10C8.20348 9.47861 8.10402 8.96195 7.91 8.478L12.25 5.973C12.5946 6.6439 13.1173 7.20692 13.7608 7.60029C14.4044 7.99367 15.1438 8.2022 15.898 8.203C16.9854 8.20194 18.028 7.76957 18.797 7.00074C19.566 6.23191 19.9987 5.18942 20 4.102C19.9989 3.01441 19.5664 1.97166 18.7974 1.20262C18.0283 0.433573 16.9856 0.001059 15.898 0C15.2969 0.000804685 14.7033 0.13357 14.1592 0.388919C13.6151 0.644268 13.1336 1.01597 12.7489 1.47778C12.3641 1.93959 12.0855 2.48025 11.9326 3.06155C11.7797 3.64286 11.7563 4.25065 11.864 4.842L7.323 7.464C6.93977 6.97607 6.45071 6.58158 5.89273 6.3103C5.33475 6.03901 4.72243 5.89803 4.102 5.898C3.01441 5.89906 1.97166 6.33157 1.20262 7.10062C0.433573 7.86966 0.001059 8.91241 0 10C0.001059 11.0876 0.433573 12.1303 1.20262 12.8994C1.97166 13.6684 3.01441 14.1009 4.102 14.102C5.406 14.102 6.571 13.489 7.322 12.536L11.864 15.158C11.7563 15.7493 11.7797 16.3571 11.9326 16.9384C12.0855 17.5198 12.3641 18.0604 12.7489 18.5222C13.1336 18.984 13.6151 19.3557 14.1592 19.6111C14.7033 19.8664 15.2969 19.9992 15.898 20C16.9856 19.9989 18.0283 19.5664 18.7974 18.7974C19.5664 18.0283 19.9989 16.9856 20 15.898C19.9987 14.8106 19.566 13.7681 18.797 12.9993C18.028 12.2304 16.9854 11.7981 15.898 11.797H15.897Z" fill="#36558F"/>
</svg>
