<svg width="16" height="16" viewBox="0 0 16 16" fill="none" xmlns="http://www.w3.org/2000/svg">
<path d="M10.5 4.667V1.333C10.5 0.875 10.875 0.5 11.333 0.5C11.792 0.5 12.167 0.875 12.167 1.333V2.167H14.667C15.125 2.167 15.5 2.542 15.5 3C15.4992 3.22068 15.4112 3.4321 15.2551 3.58815C15.0991 3.74419 14.8877 3.83221 14.667 3.833H12.167V4.667C12.1662 4.88785 12.0781 5.09942 11.9218 5.2555C11.7655 5.41157 11.5539 5.49947 11.333 5.5C11.1123 5.49921 10.9009 5.41119 10.7449 5.25515C10.5888 5.0991 10.5008 4.88768 10.5 4.667ZM14.667 8.823H7.167V7.167H14.667C15.125 7.167 15.5 7.539 15.5 7.995C15.4987 8.21506 15.4103 8.42565 15.2543 8.58079C15.0982 8.73593 14.8871 8.823 14.667 8.823ZM4.667 5.5C5.125 5.5 5.5 5.875 5.5 6.333V9.667C5.49921 9.88768 5.41119 10.0991 5.25515 10.2551C5.0991 10.4112 4.88768 10.4992 4.667 10.5C4.44614 10.4995 4.23447 10.4116 4.07821 10.2555C3.92195 10.0994 3.83379 9.88785 3.833 9.667V8.833H1.333C1.11232 8.83221 0.9009 8.74419 0.744853 8.58815C0.588807 8.4321 0.500791 8.22068 0.5 8C0.5 7.542 0.875 7.167 1.333 7.167H3.833V6.333C3.833 5.875 4.208 5.5 4.667 5.5ZM8 15.5C7.77932 15.4992 7.5679 15.4112 7.41185 15.2551C7.25581 15.0991 7.16779 14.8877 7.167 14.667V11.333C7.167 10.875 7.542 10.5 8 10.5C8.458 10.5 8.833 10.875 8.833 11.333V12.167H14.667C15.125 12.167 15.5 12.542 15.5 13C15.4992 13.2207 15.4112 13.4321 15.2551 13.5881C15.0991 13.7442 14.8877 13.8322 14.667 13.833H8.833V14.667C8.83221 14.8877 8.74419 15.0991 8.58815 15.2551C8.4321 15.4112 8.22068 15.4992 8 15.5ZM1.333 2.167H8.833V3.823H1.333C1.11294 3.823 0.901816 3.73593 0.745741 3.58079C0.589666 3.42565 0.501321 3.21506 0.5 2.995C0.5 2.539 0.875 2.167 1.333 2.167ZM1.333 12.167H5.5V13.823H1.333C1.11294 13.823 0.901816 13.7359 0.745741 13.5808C0.589666 13.4257 0.501321 13.2151 0.5 12.995C0.5 12.539 0.875 12.167 1.333 12.167Z" fill="orange"/>
</svg>
