<svg width="19" height="20" viewBox="0 0 19 20" fill="none" xmlns="http://www.w3.org/2000/svg">
<path d="M7.58496 12.8341C6.89526 12.835 6.21216 12.6998 5.57478 12.4363C4.93741 12.1728 4.35828 11.7861 3.87059 11.2984C3.3829 10.8107 2.99622 10.2316 2.73271 9.59425C2.4692 8.95687 2.33404 8.27377 2.33496 7.58407C2.33404 6.89437 2.4692 6.21127 2.73271 5.57389C2.99622 4.93652 3.3829 4.3574 3.87059 3.86971C4.35828 3.38201 4.93741 2.99534 5.57478 2.73183C6.21216 2.46832 6.89526 2.33315 7.58496 2.33407C8.27466 2.33315 8.95776 2.46832 9.59514 2.73183C10.2325 2.99534 10.8116 3.38201 11.2993 3.86971C11.787 4.3574 12.1737 4.93652 12.4372 5.57389C12.7007 6.21127 12.8359 6.89437 12.835 7.58407C12.8359 8.27377 12.7007 8.95687 12.4372 9.59425C12.1737 10.2316 11.787 10.8107 11.2993 11.2984C10.8116 11.7861 10.2325 12.1728 9.59514 12.4363C8.95776 12.6998 8.27466 12.835 7.58496 12.8341ZM13.553 12.03L13.337 12.5191C14.0659 11.672 14.5986 10.6742 14.897 9.59719C15.1954 8.52018 15.2521 7.39053 15.063 6.28907C14.515 3.04607 11.808 0.456071 8.54196 0.0600706C7.39354 -0.0852877 6.22709 0.0339955 5.13186 0.408792C4.03664 0.783589 3.04167 1.40397 2.22308 2.22245C1.4045 3.04094 0.784008 4.03584 0.409082 5.13102C0.0341561 6.2262 -0.0852646 7.39264 0.0599583 8.54107C0.456958 11.8071 3.04696 14.5141 6.28996 15.0621C7.39142 15.2512 8.52107 15.1945 9.59807 14.8961C10.6751 14.5977 11.6728 14.065 12.52 13.3361L11.803 13.78L16.761 18.738C17.24 19.217 18.021 19.217 18.5 18.738C18.7297 18.5071 18.8587 18.1947 18.8587 17.869C18.8587 17.5433 18.7297 17.2309 18.5 17L13.553 12.03Z" fill="#36558F"/>
</svg>
