<svg width="20" height="19" viewBox="0 0 20 19" fill="none" xmlns="http://www.w3.org/2000/svg">
<g clip-path="url(#clip0)">
<path d="M18.7902 17.067L14.0782 12.591L18.7902 8.979V17.067ZM2.06117 17.857L6.83317 13.314L9.26917 15.186C9.69016 15.51 10.2782 15.51 10.6992 15.186L13.1352 13.314L17.9072 17.857H2.06117ZM1.17817 8.98L5.88916 12.592L1.17817 17.068V8.98ZM4.06417 5.859V9.72L1.55517 7.79L4.06417 5.859ZM5.24817 1.175H14.7202V10.621L9.98417 14.251L5.24817 10.621V1.175ZM15.8942 5.859L18.4122 7.789L15.8942 9.72V5.859ZM19.9642 7.78C19.962 7.63034 19.9026 7.48719 19.7982 7.38C19.7522 7.334 19.9882 7.518 15.8942 4.38V1.173C15.8942 0.527 15.3672 0 14.7202 0H5.24817C4.60117 0 4.07416 0.527 4.07416 1.174V4.378C-0.0498352 7.54 0.146165 7.353 0.0581652 7.541C-0.0198348 7.711 0.00316519 6.946 0.00316519 17.847C0.00316519 18.495 0.530165 19.021 1.17817 19.021H18.7902C19.4372 19.021 19.9642 18.495 19.9642 17.847V7.78Z" fill="#36558F"/>
<path d="M11.8663 4.6242H12.8063C12.962 4.6242 13.1113 4.56235 13.2214 4.45227C13.3315 4.34218 13.3933 4.19288 13.3933 4.0372C13.3933 3.88151 13.3315 3.73221 13.2214 3.62212C13.1113 3.51204 12.962 3.4502 12.8063 3.4502H11.8663C11.7106 3.4502 11.5613 3.51204 11.4512 3.62212C11.3411 3.73221 11.2793 3.88151 11.2793 4.0372C11.2793 4.19288 11.3411 4.34218 11.4512 4.45227C11.5613 4.56235 11.7106 4.6242 11.8663 4.6242Z" fill="#36558F"/>
<path d="M11.8663 7.1242H12.8063C12.962 7.1242 13.1113 7.06235 13.2214 6.95227C13.3315 6.84218 13.3933 6.69288 13.3933 6.5372C13.3933 6.38151 13.3315 6.23221 13.2214 6.12212C13.1113 6.01204 12.962 5.9502 12.8063 5.9502H11.8663C11.7106 5.9502 11.5613 6.01204 11.4512 6.12212C11.3411 6.23221 11.2793 6.38151 11.2793 6.5372C11.2793 6.69288 11.3411 6.84218 11.4512 6.95227C11.5613 7.06235 11.7106 7.1242 11.8663 7.1242Z" fill="#36558F"/>
<path d="M11.8663 9.63396H12.8063C12.962 9.63396 13.1113 9.57212 13.2214 9.46203C13.3315 9.35195 13.3933 9.20264 13.3933 9.04696C13.3933 8.89128 13.3315 8.74197 13.2214 8.63189C13.1113 8.52181 12.962 8.45996 12.8063 8.45996H11.8663C11.7106 8.45996 11.5613 8.52181 11.4512 8.63189C11.3411 8.74197 11.2793 8.89128 11.2793 9.04696C11.2793 9.20264 11.3411 9.35195 11.4512 9.46203C11.5613 9.57212 11.7106 9.63396 11.8663 9.63396Z" fill="#36558F"/>
<path d="M9.26687 6.01486C9.00687 5.90286 8.30087 5.70786 7.94487 5.44286C7.90587 5.41486 7.88987 5.32986 7.90487 5.24186C7.98287 4.81186 8.65287 4.82186 8.95087 5.03986L8.98087 5.00686C8.99087 4.99486 9.10887 5.16386 9.37687 5.16386C9.93387 5.16386 10.1519 4.44186 9.69387 4.13186C9.48267 3.96833 9.23939 3.85112 8.97987 3.78786V3.71786C8.97987 3.56218 8.91803 3.41287 8.80794 3.30279C8.69786 3.1927 8.54855 3.13086 8.39287 3.13086C8.23719 3.13086 8.08788 3.1927 7.9778 3.30279C7.86772 3.41287 7.80587 3.56218 7.80587 3.71786V3.82186C6.70187 4.17686 6.38387 5.57386 7.12587 6.28486C7.28787 6.43986 7.52887 6.57386 7.72887 6.67186C8.50887 7.05486 8.84987 7.01486 9.01487 7.26386C9.20887 7.56686 8.94987 8.10786 8.38987 8.10786C7.96687 8.11086 7.83287 8.09986 7.48687 7.88586C7.42141 7.84515 7.34857 7.81773 7.27251 7.80517C7.19645 7.79261 7.11866 7.79516 7.04358 7.81266C6.96851 7.83017 6.89761 7.86229 6.83495 7.90719C6.77229 7.95209 6.71908 8.0089 6.67837 8.07436C6.63766 8.13982 6.61025 8.21266 6.59769 8.28872C6.58513 8.36478 6.58767 8.44257 6.60518 8.51765C6.62268 8.59273 6.6548 8.66362 6.6997 8.72628C6.7446 8.78894 6.80141 8.84215 6.86687 8.88286C7.13687 9.05186 7.33687 9.13686 7.52287 9.19186C7.85987 9.28986 7.80587 9.19686 7.80587 9.33386C7.80587 9.48954 7.86772 9.63885 7.9778 9.74893C8.08788 9.85902 8.23719 9.92086 8.39287 9.92086C8.54855 9.92086 8.69786 9.85902 8.80794 9.74893C8.91803 9.63885 8.97987 9.48954 8.97987 9.33386V9.19286C10.4869 8.70586 10.7499 6.66886 9.26687 6.01486Z" fill="#36558F"/>
</g>
<defs>
<clipPath id="clip0">
<rect width="20" height="19" fill="white"/>
</clipPath>
</defs>
</svg>
