<svg width="20" height="16" viewBox="0 0 20 16" fill="none" xmlns="http://www.w3.org/2000/svg">
<path d="M17.852 14.063H7.656V11.543L7.971 11.956C8.15 12.191 8.474 12.256 8.729 12.11L10.565 11.055C10.6369 11.0136 10.6992 10.9574 10.7478 10.8901C10.7964 10.8228 10.8301 10.7459 10.8467 10.6646C10.8634 10.5833 10.8625 10.4994 10.8443 10.4185C10.8261 10.3375 10.7909 10.2613 10.741 10.195L9.571 8.64C9.80875 8.7438 10.0686 8.78675 10.3271 8.76498C10.5856 8.7432 10.8346 8.65739 11.0517 8.51528C11.2687 8.37317 11.4469 8.17924 11.5702 7.95101C11.6935 7.72277 11.7581 7.46742 11.758 7.208V7.03H18.828V13.085C18.8277 13.3439 18.7249 13.5921 18.5419 13.7752C18.359 13.9583 18.1109 14.0615 17.852 14.062V14.063ZM1.172 13.086V7.03H2.382V7.208C2.38185 7.46755 2.44637 7.72305 2.56974 7.9514C2.69311 8.17975 2.87145 8.37376 3.08862 8.5159C3.30579 8.65803 3.55496 8.74381 3.8136 8.76548C4.07224 8.78714 4.33221 8.74402 4.57 8.64L3.4 10.194C3.35009 10.2603 3.31481 10.3364 3.29651 10.4173C3.27821 10.4982 3.27731 10.5821 3.29385 10.6634C3.31039 10.7447 3.34401 10.8216 3.39248 10.8889C3.44094 10.9562 3.50316 11.0125 3.575 11.054L5.411 12.11C5.667 12.256 5.991 12.19 6.169 11.956L6.484 11.542V14.062H2.148C1.88931 14.0615 1.64137 13.9585 1.45845 13.7756C1.27553 13.5926 1.17253 13.3447 1.172 13.086ZM6.484 1.172V4.176C6.111 4.272 5.774 4.459 5.496 4.71L4.644 4.284C4.40577 4.16479 4.14101 4.10849 3.87489 4.12044C3.60876 4.1324 3.35012 4.21222 3.12354 4.35232C2.89696 4.49241 2.70998 4.68813 2.58036 4.92086C2.45075 5.15359 2.38281 5.41561 2.383 5.682V5.859H1.172V2.15C1.172 1.611 1.61 1.173 2.148 1.173L6.484 1.172ZM10.021 5.332C10.0806 5.30209 10.1468 5.28795 10.2134 5.29092C10.28 5.29389 10.3447 5.31389 10.4014 5.34899C10.458 5.38409 10.5048 5.43314 10.5371 5.49143C10.5694 5.54973 10.5863 5.61534 10.586 5.682V7.209C10.5863 7.27566 10.5694 7.34127 10.5371 7.39957C10.5048 7.45786 10.458 7.50691 10.4014 7.54201C10.3447 7.57711 10.28 7.59711 10.2134 7.60008C10.1468 7.60306 10.0806 7.58891 10.021 7.559L9.291 7.194C9.45537 6.70854 9.45537 6.18246 9.291 5.697L10.021 5.332ZM7.656 8.716C7.793 8.68 7.926 8.632 8.052 8.573L9.406 10.377L8.592 10.847L7.656 9.612V8.716ZM6.09 8.573C6.216 8.632 6.348 8.68 6.485 8.716V9.612L5.55 10.847L4.736 10.377L6.09 8.573ZM4.12 7.558C4.0605 7.58787 3.99435 7.60202 3.92785 7.59909C3.86134 7.59616 3.79668 7.57626 3.74005 7.54127C3.68341 7.50629 3.63667 7.45738 3.60427 7.39922C3.57188 7.34106 3.55492 7.27557 3.555 7.209V5.682C3.555 5.392 3.86 5.202 4.12 5.332L4.85 5.697C4.68586 6.18216 4.68586 6.70784 4.85 7.193L4.12 7.558ZM7.07 5.273C7.716 5.273 8.242 5.801 8.242 6.45C8.242 7.1 7.716 7.627 7.07 7.627C6.75863 7.62594 6.46038 7.50144 6.24067 7.28079C6.02097 7.06015 5.89773 6.76138 5.898 6.45C5.898 5.801 6.424 5.273 7.07 5.273ZM18.828 5.859H11.758V5.682C11.7582 5.41561 11.6903 5.15359 11.5606 4.92086C11.431 4.68813 11.244 4.49241 11.0175 4.35232C10.7909 4.21222 10.5322 4.1324 10.2661 4.12044C9.99999 4.10849 9.73523 4.16479 9.497 4.284L8.644 4.71C8.36285 4.4545 8.02377 4.27123 7.656 4.176V1.172H17.852C18.39 1.172 18.828 1.61 18.828 2.148V5.859ZM17.852 0H2.148C1.57848 0.000529542 1.03243 0.227006 0.629719 0.629719C0.227006 1.03243 0.000529542 1.57848 0 2.148L0 13.086C0.000529542 13.6555 0.227006 14.2016 0.629719 14.6043C1.03243 15.007 1.57848 15.2335 2.148 15.234H17.852C18.4215 15.2335 18.9676 15.007 19.3703 14.6043C19.773 14.2016 19.9995 13.6555 20 13.086V2.148C19.9995 1.57848 19.773 1.03243 19.3703 0.629719C18.9676 0.227006 18.4215 0.000529542 17.852 0Z" fill="orange"/>
<path d="M17.0317 9.37988H13.5157C13.3603 9.37988 13.2112 9.44162 13.1013 9.55152C12.9914 9.66141 12.9297 9.81047 12.9297 9.96588C12.9297 10.1213 12.9914 10.2704 13.1013 10.3802C13.2112 10.4901 13.3603 10.5519 13.5157 10.5519H17.0317C17.1871 10.5519 17.3362 10.4901 17.4461 10.3802C17.5559 10.2704 17.6177 10.1213 17.6177 9.96588C17.6177 9.81047 17.5559 9.66141 17.4461 9.55152C17.3362 9.44162 17.1871 9.37988 17.0317 9.37988Z" fill="orange"/>
<path d="M17.0317 11.7202H13.5157C13.3603 11.7202 13.2112 11.782 13.1013 11.8919C12.9914 12.0017 12.9297 12.1508 12.9297 12.3062C12.9297 12.4616 12.9914 12.6107 13.1013 12.7206C13.2112 12.8305 13.3603 12.8922 13.5157 12.8922H17.0317C17.1871 12.8922 17.3362 12.8305 17.4461 12.7206C17.5559 12.6107 17.6177 12.4616 17.6177 12.3062C17.6177 12.1508 17.5559 12.0017 17.4461 11.8919C17.3362 11.782 17.1871 11.7202 17.0317 11.7202Z" fill="orange"/>
</svg>
