<svg width="24" height="23" viewBox="0 0 24 23" fill="none" xmlns="http://www.w3.org/2000/svg">
<path d="M11.9999 16.533L6.98491 19.56L8.31791 13.853L3.89191 10.013L9.73191 9.507L11.9979 4.133L14.2779 9.52L20.1179 10.027L15.6919 13.867L17.0249 19.573L11.9999 16.533ZM15.7459 7.493L13.2259 1.56C12.7729 0.48 11.2259 0.48 10.7729 1.56L8.25291 7.507L1.81291 8.053C0.638913 8.147 0.158913 9.613 1.05291 10.387L5.94591 14.627L4.47891 20.92C4.21291 22.067 5.45291 22.973 6.46591 22.36L11.9989 19.027L17.5329 22.373C18.5459 22.987 19.7859 22.08 19.5189 20.933L18.0529 14.627L22.9459 10.387C23.8389 9.613 23.3729 8.147 22.1989 8.053L15.7459 7.493Z" fill="orange"/>
</svg>
