<svg width="90" height="260" viewBox="0 0 90 260" fill="none" xmlns="http://www.w3.org/2000/svg">
<path fill-rule="evenodd" clip-rule="evenodd" d="M87.2805 255.814C88.4433 255.814 89.3735 256.744 89.3735 257.907C89.3735 259.07 88.4433 260 87.2805 260C86.1177 260 85.1875 259.07 85.1875 257.907C85.1875 256.744 86.1177 255.814 87.2805 255.814Z" fill="#E4E4E4"/>
<path fill-rule="evenodd" clip-rule="evenodd" d="M87.2805 232.558C88.4433 232.558 89.3735 233.488 89.3735 234.651C89.3735 235.814 88.4433 236.744 87.2805 236.744C86.1177 236.744 85.1875 235.814 85.1875 234.651C85.1875 233.488 86.1177 232.558 87.2805 232.558Z" fill="#E4E4E4"/>
<path fill-rule="evenodd" clip-rule="evenodd" d="M87.2805 209.302C88.4433 209.302 89.3735 210.232 89.3735 211.395C89.3735 212.558 88.4433 213.488 87.2805 213.488C86.1177 213.488 85.1875 212.558 85.1875 211.395C85.1875 210.232 86.1177 209.302 87.2805 209.302Z" fill="#E4E4E4"/>
<path fill-rule="evenodd" clip-rule="evenodd" d="M87.2805 186.046C88.4433 186.046 89.3735 186.977 89.3735 188.139C89.3735 189.302 88.4433 190.232 87.2805 190.232C86.1177 190.232 85.1875 189.302 85.1875 188.139C85.1875 186.977 86.1177 186.046 87.2805 186.046Z" fill="#E4E4E4"/>
<path fill-rule="evenodd" clip-rule="evenodd" d="M87.2805 162.791C88.4433 162.791 89.3735 163.721 89.3735 164.884C89.3735 166.046 88.4433 166.977 87.2805 166.977C86.1177 166.977 85.1875 166.046 85.1875 164.884C85.1875 163.721 86.1177 162.791 87.2805 162.791Z" fill="#E4E4E4"/>
<path fill-rule="evenodd" clip-rule="evenodd" d="M87.2805 139.535C88.4433 139.535 89.3735 140.465 89.3735 141.628C89.3735 142.791 88.4433 143.721 87.2805 143.721C86.1177 143.721 85.1875 142.791 85.1875 141.628C85.1875 140.465 86.1177 139.535 87.2805 139.535Z" fill="#E4E4E4"/>
<path fill-rule="evenodd" clip-rule="evenodd" d="M87.2805 116.279C88.4433 116.279 89.3735 117.209 89.3735 118.372C89.3735 119.535 88.4433 120.465 87.2805 120.465C86.1177 120.465 85.1875 119.535 85.1875 118.372C85.1875 117.209 86.1177 116.279 87.2805 116.279Z" fill="#E4E4E4"/>
<path fill-rule="evenodd" clip-rule="evenodd" d="M87.2805 93.0232C88.4433 93.0232 89.3735 93.9534 89.3735 95.1162C89.3735 96.279 88.4433 97.2092 87.2805 97.2092C86.1177 97.2092 85.1875 96.279 85.1875 95.1162C85.1875 93.9534 86.1177 93.0232 87.2805 93.0232Z" fill="#E4E4E4"/>
<path fill-rule="evenodd" clip-rule="evenodd" d="M87.2805 69.7676C88.4433 69.7676 89.3735 70.6978 89.3735 71.8606C89.3735 73.0234 88.4433 73.9536 87.2805 73.9536C86.1177 73.9536 85.1875 73.0234 85.1875 71.8606C85.1875 70.6978 86.1177 69.7676 87.2805 69.7676Z" fill="#E4E4E4"/>
<path fill-rule="evenodd" clip-rule="evenodd" d="M87.2805 46.5117C88.4433 46.5117 89.3735 47.442 89.3735 48.6047C89.3735 49.7675 88.4433 50.6978 87.2805 50.6978C86.1177 50.6978 85.1875 49.7675 85.1875 48.6047C85.1875 47.442 86.1177 46.5117 87.2805 46.5117Z" fill="#E4E4E4"/>
<path fill-rule="evenodd" clip-rule="evenodd" d="M87.2805 23.2559C88.4433 23.2559 89.3735 24.1861 89.3735 25.3489C89.3735 26.5117 88.4433 27.4419 87.2805 27.4419C86.1177 27.4419 85.1875 26.5117 85.1875 25.3489C85.1875 24.1861 86.1177 23.2559 87.2805 23.2559Z" fill="#E4E4E4"/>
<path fill-rule="evenodd" clip-rule="evenodd" d="M87.2805 0C88.4433 0 89.3735 0.930232 89.3735 2.09302C89.3735 3.25581 88.4433 4.18605 87.2805 4.18605C86.1177 4.18605 85.1875 3.25581 85.1875 2.09302C85.1875 0.930232 86.1177 0 87.2805 0Z" fill="#E4E4E4"/>
<path fill-rule="evenodd" clip-rule="evenodd" d="M62.3938 255.814C63.5566 255.814 64.4868 256.744 64.4868 257.907C64.4868 259.07 63.5566 260 62.3938 260C61.231 260 60.3008 259.07 60.3008 257.907C60.3008 256.744 61.231 255.814 62.3938 255.814Z" fill="#E4E4E4"/>
<path fill-rule="evenodd" clip-rule="evenodd" d="M62.3938 232.558C63.5566 232.558 64.4868 233.488 64.4868 234.651C64.4868 235.814 63.5566 236.744 62.3938 236.744C61.231 236.744 60.3008 235.814 60.3008 234.651C60.3008 233.488 61.231 232.558 62.3938 232.558Z" fill="#E4E4E4"/>
<path fill-rule="evenodd" clip-rule="evenodd" d="M62.3938 209.302C63.5566 209.302 64.4868 210.232 64.4868 211.395C64.4868 212.558 63.5566 213.488 62.3938 213.488C61.231 213.488 60.3008 212.558 60.3008 211.395C60.3008 210.232 61.231 209.302 62.3938 209.302Z" fill="#E4E4E4"/>
<path fill-rule="evenodd" clip-rule="evenodd" d="M62.3938 186.046C63.5566 186.046 64.4868 186.977 64.4868 188.139C64.4868 189.302 63.5566 190.232 62.3938 190.232C61.231 190.232 60.3008 189.302 60.3008 188.139C60.3008 186.977 61.231 186.046 62.3938 186.046Z" fill="#E4E4E4"/>
<path fill-rule="evenodd" clip-rule="evenodd" d="M62.3938 162.791C63.5566 162.791 64.4868 163.721 64.4868 164.884C64.4868 166.046 63.5566 166.977 62.3938 166.977C61.231 166.977 60.3008 166.046 60.3008 164.884C60.3008 163.721 61.231 162.791 62.3938 162.791Z" fill="#E4E4E4"/>
<path fill-rule="evenodd" clip-rule="evenodd" d="M62.3938 139.535C63.5566 139.535 64.4868 140.465 64.4868 141.628C64.4868 142.791 63.5566 143.721 62.3938 143.721C61.231 143.721 60.3008 142.791 60.3008 141.628C60.3008 140.465 61.231 139.535 62.3938 139.535Z" fill="#E4E4E4"/>
<path fill-rule="evenodd" clip-rule="evenodd" d="M62.3938 116.279C63.5566 116.279 64.4868 117.209 64.4868 118.372C64.4868 119.535 63.5566 120.465 62.3938 120.465C61.231 120.465 60.3008 119.535 60.3008 118.372C60.3008 117.209 61.231 116.279 62.3938 116.279Z" fill="#E4E4E4"/>
<path fill-rule="evenodd" clip-rule="evenodd" d="M62.3938 93.0232C63.5566 93.0232 64.4868 93.9534 64.4868 95.1162C64.4868 96.279 63.5566 97.2092 62.3938 97.2092C61.231 97.2092 60.3008 96.279 60.3008 95.1162C60.3008 93.9534 61.231 93.0232 62.3938 93.0232Z" fill="#E4E4E4"/>
<path fill-rule="evenodd" clip-rule="evenodd" d="M62.3938 69.7676C63.5566 69.7676 64.4868 70.6978 64.4868 71.8606C64.4868 73.0234 63.5566 73.9536 62.3938 73.9536C61.231 73.9536 60.3008 73.0234 60.3008 71.8606C60.3008 70.6978 61.231 69.7676 62.3938 69.7676Z" fill="#E4E4E4"/>
<path fill-rule="evenodd" clip-rule="evenodd" d="M62.3938 46.5117C63.5566 46.5117 64.4868 47.442 64.4868 48.6047C64.4868 49.7675 63.5566 50.6978 62.3938 50.6978C61.231 50.6978 60.3008 49.7675 60.3008 48.6047C60.3008 47.442 61.231 46.5117 62.3938 46.5117Z" fill="#E4E4E4"/>
<path fill-rule="evenodd" clip-rule="evenodd" d="M62.3938 23.2559C63.5566 23.2559 64.4868 24.1861 64.4868 25.3489C64.4868 26.5117 63.5566 27.4419 62.3938 27.4419C61.231 27.4419 60.3008 26.5117 60.3008 25.3489C60.3008 24.1861 61.231 23.2559 62.3938 23.2559Z" fill="#E4E4E4"/>
<path fill-rule="evenodd" clip-rule="evenodd" d="M62.3938 0C63.5566 0 64.4868 0.930232 64.4868 2.09302C64.4868 3.25581 63.5566 4.18605 62.3938 4.18605C61.231 4.18605 60.3008 3.25581 60.3008 2.09302C60.3008 0.930232 61.231 0 62.3938 0Z" fill="#E4E4E4"/>
<path fill-rule="evenodd" clip-rule="evenodd" d="M62.3938 255.814C63.5566 255.814 64.4868 256.744 64.4868 257.907C64.4868 259.07 63.5566 260 62.3938 260C61.231 260 60.3008 259.07 60.3008 257.907C60.3008 256.744 61.231 255.814 62.3938 255.814Z" fill="#E4E4E4"/>
<path fill-rule="evenodd" clip-rule="evenodd" d="M62.3938 232.558C63.5566 232.558 64.4868 233.488 64.4868 234.651C64.4868 235.814 63.5566 236.744 62.3938 236.744C61.231 236.744 60.3008 235.814 60.3008 234.651C60.3008 233.488 61.231 232.558 62.3938 232.558Z" fill="#E4E4E4"/>
<path fill-rule="evenodd" clip-rule="evenodd" d="M62.3938 209.302C63.5566 209.302 64.4868 210.232 64.4868 211.395C64.4868 212.558 63.5566 213.488 62.3938 213.488C61.231 213.488 60.3008 212.558 60.3008 211.395C60.3008 210.232 61.231 209.302 62.3938 209.302Z" fill="#E4E4E4"/>
<path fill-rule="evenodd" clip-rule="evenodd" d="M62.3938 186.046C63.5566 186.046 64.4868 186.977 64.4868 188.139C64.4868 189.302 63.5566 190.232 62.3938 190.232C61.231 190.232 60.3008 189.302 60.3008 188.139C60.3008 186.977 61.231 186.046 62.3938 186.046Z" fill="#E4E4E4"/>
<path fill-rule="evenodd" clip-rule="evenodd" d="M62.3938 162.791C63.5566 162.791 64.4868 163.721 64.4868 164.884C64.4868 166.046 63.5566 166.977 62.3938 166.977C61.231 166.977 60.3008 166.046 60.3008 164.884C60.3008 163.721 61.231 162.791 62.3938 162.791Z" fill="#E4E4E4"/>
<path fill-rule="evenodd" clip-rule="evenodd" d="M62.3938 139.535C63.5566 139.535 64.4868 140.465 64.4868 141.628C64.4868 142.791 63.5566 143.721 62.3938 143.721C61.231 143.721 60.3008 142.791 60.3008 141.628C60.3008 140.465 61.231 139.535 62.3938 139.535Z" fill="#E4E4E4"/>
<path fill-rule="evenodd" clip-rule="evenodd" d="M62.3938 116.279C63.5566 116.279 64.4868 117.209 64.4868 118.372C64.4868 119.535 63.5566 120.465 62.3938 120.465C61.231 120.465 60.3008 119.535 60.3008 118.372C60.3008 117.209 61.231 116.279 62.3938 116.279Z" fill="#E4E4E4"/>
<path fill-rule="evenodd" clip-rule="evenodd" d="M62.3938 93.0232C63.5566 93.0232 64.4868 93.9534 64.4868 95.1162C64.4868 96.279 63.5566 97.2092 62.3938 97.2092C61.231 97.2092 60.3008 96.279 60.3008 95.1162C60.3008 93.9534 61.231 93.0232 62.3938 93.0232Z" fill="#E4E4E4"/>
<path fill-rule="evenodd" clip-rule="evenodd" d="M62.3938 69.7676C63.5566 69.7676 64.4868 70.6978 64.4868 71.8606C64.4868 73.0234 63.5566 73.9536 62.3938 73.9536C61.231 73.9536 60.3008 73.0234 60.3008 71.8606C60.3008 70.6978 61.231 69.7676 62.3938 69.7676Z" fill="#E4E4E4"/>
<path fill-rule="evenodd" clip-rule="evenodd" d="M62.3938 46.5117C63.5566 46.5117 64.4868 47.442 64.4868 48.6047C64.4868 49.7675 63.5566 50.6978 62.3938 50.6978C61.231 50.6978 60.3008 49.7675 60.3008 48.6047C60.3008 47.442 61.231 46.5117 62.3938 46.5117Z" fill="#E4E4E4"/>
<path fill-rule="evenodd" clip-rule="evenodd" d="M62.3938 23.2559C63.5566 23.2559 64.4868 24.1861 64.4868 25.3489C64.4868 26.5117 63.5566 27.4419 62.3938 27.4419C61.231 27.4419 60.3008 26.5117 60.3008 25.3489C60.3008 24.1861 61.231 23.2559 62.3938 23.2559Z" fill="#E4E4E4"/>
<path fill-rule="evenodd" clip-rule="evenodd" d="M62.3938 0C63.5566 0 64.4868 0.930232 64.4868 2.09302C64.4868 3.25581 63.5566 4.18605 62.3938 4.18605C61.231 4.18605 60.3008 3.25581 60.3008 2.09302C60.3008 0.930232 61.231 0 62.3938 0Z" fill="#E4E4E4"/>
<path fill-rule="evenodd" clip-rule="evenodd" d="M37.511 255.814C38.6738 255.814 39.604 256.744 39.604 257.907C39.604 259.07 38.6738 260 37.511 260C36.3482 260 35.418 259.07 35.418 257.907C35.418 256.744 36.3482 255.814 37.511 255.814Z" fill="#E4E4E4"/>
<path fill-rule="evenodd" clip-rule="evenodd" d="M37.511 232.558C38.6738 232.558 39.604 233.488 39.604 234.651C39.604 235.814 38.6738 236.744 37.511 236.744C36.3482 236.744 35.418 235.814 35.418 234.651C35.418 233.488 36.3482 232.558 37.511 232.558Z" fill="#E4E4E4"/>
<path fill-rule="evenodd" clip-rule="evenodd" d="M37.511 209.302C38.6738 209.302 39.604 210.232 39.604 211.395C39.604 212.558 38.6738 213.488 37.511 213.488C36.3482 213.488 35.418 212.558 35.418 211.395C35.418 210.232 36.3482 209.302 37.511 209.302Z" fill="#E4E4E4"/>
<path fill-rule="evenodd" clip-rule="evenodd" d="M37.511 186.046C38.6738 186.046 39.604 186.977 39.604 188.139C39.604 189.302 38.6738 190.232 37.511 190.232C36.3482 190.232 35.418 189.302 35.418 188.139C35.418 186.977 36.3482 186.046 37.511 186.046Z" fill="#E4E4E4"/>
<path fill-rule="evenodd" clip-rule="evenodd" d="M37.511 162.791C38.6738 162.791 39.604 163.721 39.604 164.884C39.604 166.046 38.6738 166.977 37.511 166.977C36.3482 166.977 35.418 166.046 35.418 164.884C35.418 163.721 36.3482 162.791 37.511 162.791Z" fill="#E4E4E4"/>
<path fill-rule="evenodd" clip-rule="evenodd" d="M37.511 139.535C38.6738 139.535 39.604 140.465 39.604 141.628C39.604 142.791 38.6738 143.721 37.511 143.721C36.3482 143.721 35.418 142.791 35.418 141.628C35.418 140.465 36.3482 139.535 37.511 139.535Z" fill="#E4E4E4"/>
<path fill-rule="evenodd" clip-rule="evenodd" d="M37.511 116.279C38.6738 116.279 39.604 117.209 39.604 118.372C39.604 119.535 38.6738 120.465 37.511 120.465C36.3482 120.465 35.418 119.535 35.418 118.372C35.418 117.209 36.3482 116.279 37.511 116.279Z" fill="#E4E4E4"/>
<path fill-rule="evenodd" clip-rule="evenodd" d="M37.511 93.0232C38.6738 93.0232 39.604 93.9534 39.604 95.1162C39.604 96.279 38.6738 97.2092 37.511 97.2092C36.3482 97.2092 35.418 96.279 35.418 95.1162C35.418 93.9534 36.3482 93.0232 37.511 93.0232Z" fill="#E4E4E4"/>
<path fill-rule="evenodd" clip-rule="evenodd" d="M37.511 69.7676C38.6738 69.7676 39.604 70.6978 39.604 71.8606C39.604 73.0234 38.6738 73.9536 37.511 73.9536C36.3482 73.9536 35.418 73.0234 35.418 71.8606C35.418 70.6978 36.3482 69.7676 37.511 69.7676Z" fill="#E4E4E4"/>
<path fill-rule="evenodd" clip-rule="evenodd" d="M37.511 46.5117C38.6738 46.5117 39.604 47.442 39.604 48.6047C39.604 49.7675 38.6738 50.6978 37.511 50.6978C36.3482 50.6978 35.418 49.7675 35.418 48.6047C35.418 47.442 36.3482 46.5117 37.511 46.5117Z" fill="#E4E4E4"/>
<path fill-rule="evenodd" clip-rule="evenodd" d="M37.511 23.2559C38.6738 23.2559 39.604 24.1861 39.604 25.3489C39.604 26.5117 38.6738 27.4419 37.511 27.4419C36.3482 27.4419 35.418 26.5117 35.418 25.3489C35.418 24.1861 36.3482 23.2559 37.511 23.2559Z" fill="#E4E4E4"/>
<path fill-rule="evenodd" clip-rule="evenodd" d="M37.511 0C38.6738 0 39.604 0.930232 39.604 2.09302C39.604 3.25581 38.6738 4.18605 37.511 4.18605C36.3482 4.18605 35.418 3.25581 35.418 2.09302C35.418 0.930232 36.3482 0 37.511 0Z" fill="#E4E4E4"/>
<path fill-rule="evenodd" clip-rule="evenodd" d="M12.6282 255.814C13.791 255.814 14.7212 256.744 14.7212 257.907C14.7212 259.07 13.791 260 12.6282 260C11.4654 260 10.5352 259.07 10.5352 257.907C10.5352 256.744 11.4654 255.814 12.6282 255.814Z" fill="#E4E4E4"/>
<path fill-rule="evenodd" clip-rule="evenodd" d="M12.6282 232.558C13.791 232.558 14.7212 233.488 14.7212 234.651C14.7212 235.814 13.791 236.744 12.6282 236.744C11.4654 236.744 10.5352 235.814 10.5352 234.651C10.5352 233.488 11.4654 232.558 12.6282 232.558Z" fill="#E4E4E4"/>
<path fill-rule="evenodd" clip-rule="evenodd" d="M12.6282 209.302C13.791 209.302 14.7212 210.232 14.7212 211.395C14.7212 212.558 13.791 213.488 12.6282 213.488C11.4654 213.488 10.5352 212.558 10.5352 211.395C10.5352 210.232 11.4654 209.302 12.6282 209.302Z" fill="#E4E4E4"/>
<path fill-rule="evenodd" clip-rule="evenodd" d="M12.6282 186.046C13.791 186.046 14.7212 186.977 14.7212 188.139C14.7212 189.302 13.791 190.232 12.6282 190.232C11.4654 190.232 10.5352 189.302 10.5352 188.139C10.5352 186.977 11.4654 186.046 12.6282 186.046Z" fill="#E4E4E4"/>
<path fill-rule="evenodd" clip-rule="evenodd" d="M12.6282 162.791C13.791 162.791 14.7212 163.721 14.7212 164.884C14.7212 166.046 13.791 166.977 12.6282 166.977C11.4654 166.977 10.5352 166.046 10.5352 164.884C10.5352 163.721 11.4654 162.791 12.6282 162.791Z" fill="#E4E4E4"/>
<path fill-rule="evenodd" clip-rule="evenodd" d="M12.6282 139.535C13.791 139.535 14.7212 140.465 14.7212 141.628C14.7212 142.791 13.791 143.721 12.6282 143.721C11.4654 143.721 10.5352 142.791 10.5352 141.628C10.5352 140.465 11.4654 139.535 12.6282 139.535Z" fill="#E4E4E4"/>
<path fill-rule="evenodd" clip-rule="evenodd" d="M12.6282 116.279C13.791 116.279 14.7212 117.209 14.7212 118.372C14.7212 119.535 13.791 120.465 12.6282 120.465C11.4654 120.465 10.5352 119.535 10.5352 118.372C10.5352 117.209 11.4654 116.279 12.6282 116.279Z" fill="#E4E4E4"/>
<path fill-rule="evenodd" clip-rule="evenodd" d="M12.6282 93.0232C13.791 93.0232 14.7212 93.9534 14.7212 95.1162C14.7212 96.279 13.791 97.2092 12.6282 97.2092C11.4654 97.2092 10.5352 96.279 10.5352 95.1162C10.5352 93.9534 11.4654 93.0232 12.6282 93.0232Z" fill="#E4E4E4"/>
<path fill-rule="evenodd" clip-rule="evenodd" d="M12.6282 69.7676C13.791 69.7676 14.7212 70.6978 14.7212 71.8606C14.7212 73.0234 13.791 73.9536 12.6282 73.9536C11.4654 73.9536 10.5352 73.0234 10.5352 71.8606C10.5352 70.6978 11.4654 69.7676 12.6282 69.7676Z" fill="#E4E4E4"/>
<path fill-rule="evenodd" clip-rule="evenodd" d="M12.6282 46.5117C13.791 46.5117 14.7212 47.442 14.7212 48.6047C14.7212 49.7675 13.791 50.6978 12.6282 50.6978C11.4654 50.6978 10.5352 49.7675 10.5352 48.6047C10.5352 47.442 11.4654 46.5117 12.6282 46.5117Z" fill="#E4E4E4"/>
<path fill-rule="evenodd" clip-rule="evenodd" d="M12.6282 23.2559C13.791 23.2559 14.7212 24.1861 14.7212 25.3489C14.7212 26.5117 13.791 27.4419 12.6282 27.4419C11.4654 27.4419 10.5352 26.5117 10.5352 25.3489C10.5352 24.1861 11.4654 23.2559 12.6282 23.2559Z" fill="#E4E4E4"/>
<path fill-rule="evenodd" clip-rule="evenodd" d="M12.6282 0C13.791 0 14.7212 0.930232 14.7212 2.09302C14.7212 3.25581 13.791 4.18605 12.6282 4.18605C11.4654 4.18605 10.5352 3.25581 10.5352 2.09302C10.5352 0.930232 11.4654 0 12.6282 0Z" fill="#E4E4E4"/>
<path fill-rule="evenodd" clip-rule="evenodd" d="M12.6282 255.814C13.791 255.814 14.7212 256.744 14.7212 257.907C14.7212 259.07 13.791 260 12.6282 260C11.4654 260 10.5352 259.07 10.5352 257.907C10.5352 256.744 11.4654 255.814 12.6282 255.814Z" fill="#E4E4E4"/>
<path fill-rule="evenodd" clip-rule="evenodd" d="M12.6282 232.558C13.791 232.558 14.7212 233.488 14.7212 234.651C14.7212 235.814 13.791 236.744 12.6282 236.744C11.4654 236.744 10.5352 235.814 10.5352 234.651C10.5352 233.488 11.4654 232.558 12.6282 232.558Z" fill="#E4E4E4"/>
<path fill-rule="evenodd" clip-rule="evenodd" d="M12.6282 209.302C13.791 209.302 14.7212 210.232 14.7212 211.395C14.7212 212.558 13.791 213.488 12.6282 213.488C11.4654 213.488 10.5352 212.558 10.5352 211.395C10.5352 210.232 11.4654 209.302 12.6282 209.302Z" fill="#E4E4E4"/>
<path fill-rule="evenodd" clip-rule="evenodd" d="M12.6282 186.046C13.791 186.046 14.7212 186.977 14.7212 188.139C14.7212 189.302 13.791 190.232 12.6282 190.232C11.4654 190.232 10.5352 189.302 10.5352 188.139C10.5352 186.977 11.4654 186.046 12.6282 186.046Z" fill="#E4E4E4"/>
<path fill-rule="evenodd" clip-rule="evenodd" d="M12.6282 162.791C13.791 162.791 14.7212 163.721 14.7212 164.884C14.7212 166.046 13.791 166.977 12.6282 166.977C11.4654 166.977 10.5352 166.046 10.5352 164.884C10.5352 163.721 11.4654 162.791 12.6282 162.791Z" fill="#E4E4E4"/>
<path fill-rule="evenodd" clip-rule="evenodd" d="M12.6282 139.535C13.791 139.535 14.7212 140.465 14.7212 141.628C14.7212 142.791 13.791 143.721 12.6282 143.721C11.4654 143.721 10.5352 142.791 10.5352 141.628C10.5352 140.465 11.4654 139.535 12.6282 139.535Z" fill="#E4E4E4"/>
<path fill-rule="evenodd" clip-rule="evenodd" d="M12.6282 116.279C13.791 116.279 14.7212 117.209 14.7212 118.372C14.7212 119.535 13.791 120.465 12.6282 120.465C11.4654 120.465 10.5352 119.535 10.5352 118.372C10.5352 117.209 11.4654 116.279 12.6282 116.279Z" fill="#E4E4E4"/>
<path fill-rule="evenodd" clip-rule="evenodd" d="M12.6282 93.0232C13.791 93.0232 14.7212 93.9534 14.7212 95.1162C14.7212 96.279 13.791 97.2092 12.6282 97.2092C11.4654 97.2092 10.5352 96.279 10.5352 95.1162C10.5352 93.9534 11.4654 93.0232 12.6282 93.0232Z" fill="#E4E4E4"/>
<path fill-rule="evenodd" clip-rule="evenodd" d="M12.6282 69.7676C13.791 69.7676 14.7212 70.6978 14.7212 71.8606C14.7212 73.0234 13.791 73.9536 12.6282 73.9536C11.4654 73.9536 10.5352 73.0234 10.5352 71.8606C10.5352 70.6978 11.4654 69.7676 12.6282 69.7676Z" fill="#E4E4E4"/>
<path fill-rule="evenodd" clip-rule="evenodd" d="M12.6282 46.5117C13.791 46.5117 14.7212 47.442 14.7212 48.6047C14.7212 49.7675 13.791 50.6978 12.6282 50.6978C11.4654 50.6978 10.5352 49.7675 10.5352 48.6047C10.5352 47.442 11.4654 46.5117 12.6282 46.5117Z" fill="#E4E4E4"/>
<path fill-rule="evenodd" clip-rule="evenodd" d="M12.6282 23.2559C13.791 23.2559 14.7212 24.1861 14.7212 25.3489C14.7212 26.5117 13.791 27.4419 12.6282 27.4419C11.4654 27.4419 10.5352 26.5117 10.5352 25.3489C10.5352 24.1861 11.4654 23.2559 12.6282 23.2559Z" fill="#E4E4E4"/>
<path fill-rule="evenodd" clip-rule="evenodd" d="M12.6282 0C13.791 0 14.7212 0.930232 14.7212 2.09302C14.7212 3.25581 13.791 4.18605 12.6282 4.18605C11.4654 4.18605 10.5352 3.25581 10.5352 2.09302C10.5352 0.930232 11.4654 0 12.6282 0Z" fill="#E4E4E4"/>
</svg>
