<svg width="61" height="260" viewBox="0 0 61 260" fill="none" xmlns="http://www.w3.org/2000/svg">
<path fill-rule="evenodd" clip-rule="evenodd" d="M51.8586 255.814C53.0214 255.814 53.9517 256.744 53.9517 257.907C53.9517 259.07 53.0214 260 51.8586 260C50.6959 260 49.7656 259.07 49.7656 257.907C49.7656 256.744 50.6959 255.814 51.8586 255.814Z" fill="#E4E4E4"/>
<path fill-rule="evenodd" clip-rule="evenodd" d="M51.8586 232.558C53.0214 232.558 53.9517 233.488 53.9517 234.651C53.9517 235.814 53.0214 236.744 51.8586 236.744C50.6959 236.744 49.7656 235.814 49.7656 234.651C49.7656 233.488 50.6959 232.558 51.8586 232.558Z" fill="#E4E4E4"/>
<path fill-rule="evenodd" clip-rule="evenodd" d="M51.8586 209.302C53.0214 209.302 53.9517 210.232 53.9517 211.395C53.9517 212.558 53.0214 213.488 51.8586 213.488C50.6959 213.488 49.7656 212.558 49.7656 211.395C49.7656 210.232 50.6959 209.302 51.8586 209.302Z" fill="#E4E4E4"/>
<path fill-rule="evenodd" clip-rule="evenodd" d="M51.8586 186.046C53.0214 186.046 53.9517 186.977 53.9517 188.139C53.9517 189.302 53.0214 190.232 51.8586 190.232C50.6959 190.232 49.7656 189.302 49.7656 188.139C49.7656 186.977 50.6959 186.046 51.8586 186.046Z" fill="#E4E4E4"/>
<path fill-rule="evenodd" clip-rule="evenodd" d="M51.8586 162.791C53.0214 162.791 53.9517 163.721 53.9517 164.884C53.9517 166.046 53.0214 166.977 51.8586 166.977C50.6959 166.977 49.7656 166.046 49.7656 164.884C49.7656 163.721 50.6959 162.791 51.8586 162.791Z" fill="#E4E4E4"/>
<path fill-rule="evenodd" clip-rule="evenodd" d="M51.8586 139.535C53.0214 139.535 53.9517 140.465 53.9517 141.628C53.9517 142.791 53.0214 143.721 51.8586 143.721C50.6959 143.721 49.7656 142.791 49.7656 141.628C49.7656 140.465 50.6959 139.535 51.8586 139.535Z" fill="#E4E4E4"/>
<path fill-rule="evenodd" clip-rule="evenodd" d="M51.8586 116.279C53.0214 116.279 53.9517 117.21 53.9517 118.372C53.9517 119.535 53.0214 120.465 51.8586 120.465C50.6959 120.465 49.7656 119.535 49.7656 118.372C49.7656 117.21 50.6959 116.279 51.8586 116.279Z" fill="#E4E4E4"/>
<path fill-rule="evenodd" clip-rule="evenodd" d="M51.8586 93.0234C53.0214 93.0234 53.9517 93.9537 53.9517 95.1165C53.9517 96.2793 53.0214 97.2095 51.8586 97.2095C50.6959 97.2095 49.7656 96.2793 49.7656 95.1165C49.7656 93.9537 50.6959 93.0234 51.8586 93.0234Z" fill="#E4E4E4"/>
<path fill-rule="evenodd" clip-rule="evenodd" d="M51.8586 69.7676C53.0214 69.7676 53.9517 70.6978 53.9517 71.8606C53.9517 73.0234 53.0214 73.9536 51.8586 73.9536C50.6959 73.9536 49.7656 73.0234 49.7656 71.8606C49.7656 70.6978 50.6959 69.7676 51.8586 69.7676Z" fill="#E4E4E4"/>
<path fill-rule="evenodd" clip-rule="evenodd" d="M51.8586 46.5117C53.0214 46.5117 53.9517 47.442 53.9517 48.6047C53.9517 49.7675 53.0214 50.6978 51.8586 50.6978C50.6959 50.6978 49.7656 49.7675 49.7656 48.6047C49.7656 47.442 50.6959 46.5117 51.8586 46.5117Z" fill="#E4E4E4"/>
<path fill-rule="evenodd" clip-rule="evenodd" d="M51.8586 23.2559C53.0214 23.2559 53.9517 24.1861 53.9517 25.3489C53.9517 26.5117 53.0214 27.4419 51.8586 27.4419C50.6959 27.4419 49.7656 26.5117 49.7656 25.3489C49.7656 24.1861 50.6959 23.2559 51.8586 23.2559Z" fill="#E4E4E4"/>
<path fill-rule="evenodd" clip-rule="evenodd" d="M51.8586 0C53.0214 0 53.9517 0.930232 53.9517 2.09302C53.9517 3.25581 53.0214 4.18605 51.8586 4.18605C50.6959 4.18605 49.7656 3.25581 49.7656 2.09302C49.7656 0.930232 50.6959 0 51.8586 0Z" fill="#E4E4E4"/>
<path fill-rule="evenodd" clip-rule="evenodd" d="M51.8586 255.814C53.0214 255.814 53.9517 256.744 53.9517 257.907C53.9517 259.07 53.0214 260 51.8586 260C50.6959 260 49.7656 259.07 49.7656 257.907C49.7656 256.744 50.6959 255.814 51.8586 255.814Z" fill="#E4E4E4"/>
<path fill-rule="evenodd" clip-rule="evenodd" d="M51.8586 232.558C53.0214 232.558 53.9517 233.488 53.9517 234.651C53.9517 235.814 53.0214 236.744 51.8586 236.744C50.6959 236.744 49.7656 235.814 49.7656 234.651C49.7656 233.488 50.6959 232.558 51.8586 232.558Z" fill="#E4E4E4"/>
<path fill-rule="evenodd" clip-rule="evenodd" d="M51.8586 209.302C53.0214 209.302 53.9517 210.232 53.9517 211.395C53.9517 212.558 53.0214 213.488 51.8586 213.488C50.6959 213.488 49.7656 212.558 49.7656 211.395C49.7656 210.232 50.6959 209.302 51.8586 209.302Z" fill="#E4E4E4"/>
<path fill-rule="evenodd" clip-rule="evenodd" d="M51.8586 186.046C53.0214 186.046 53.9517 186.977 53.9517 188.139C53.9517 189.302 53.0214 190.232 51.8586 190.232C50.6959 190.232 49.7656 189.302 49.7656 188.139C49.7656 186.977 50.6959 186.046 51.8586 186.046Z" fill="#E4E4E4"/>
<path fill-rule="evenodd" clip-rule="evenodd" d="M51.8586 162.791C53.0214 162.791 53.9517 163.721 53.9517 164.884C53.9517 166.046 53.0214 166.977 51.8586 166.977C50.6959 166.977 49.7656 166.046 49.7656 164.884C49.7656 163.721 50.6959 162.791 51.8586 162.791Z" fill="#E4E4E4"/>
<path fill-rule="evenodd" clip-rule="evenodd" d="M51.8586 139.535C53.0214 139.535 53.9517 140.465 53.9517 141.628C53.9517 142.791 53.0214 143.721 51.8586 143.721C50.6959 143.721 49.7656 142.791 49.7656 141.628C49.7656 140.465 50.6959 139.535 51.8586 139.535Z" fill="#E4E4E4"/>
<path fill-rule="evenodd" clip-rule="evenodd" d="M51.8586 116.279C53.0214 116.279 53.9517 117.21 53.9517 118.372C53.9517 119.535 53.0214 120.465 51.8586 120.465C50.6959 120.465 49.7656 119.535 49.7656 118.372C49.7656 117.21 50.6959 116.279 51.8586 116.279Z" fill="#E4E4E4"/>
<path fill-rule="evenodd" clip-rule="evenodd" d="M51.8586 93.0234C53.0214 93.0234 53.9517 93.9537 53.9517 95.1165C53.9517 96.2793 53.0214 97.2095 51.8586 97.2095C50.6959 97.2095 49.7656 96.2793 49.7656 95.1165C49.7656 93.9537 50.6959 93.0234 51.8586 93.0234Z" fill="#E4E4E4"/>
<path fill-rule="evenodd" clip-rule="evenodd" d="M51.8586 69.7676C53.0214 69.7676 53.9517 70.6978 53.9517 71.8606C53.9517 73.0234 53.0214 73.9536 51.8586 73.9536C50.6959 73.9536 49.7656 73.0234 49.7656 71.8606C49.7656 70.6978 50.6959 69.7676 51.8586 69.7676Z" fill="#E4E4E4"/>
<path fill-rule="evenodd" clip-rule="evenodd" d="M51.8586 46.5117C53.0214 46.5117 53.9517 47.442 53.9517 48.6047C53.9517 49.7675 53.0214 50.6978 51.8586 50.6978C50.6959 50.6978 49.7656 49.7675 49.7656 48.6047C49.7656 47.442 50.6959 46.5117 51.8586 46.5117Z" fill="#E4E4E4"/>
<path fill-rule="evenodd" clip-rule="evenodd" d="M51.8586 23.2559C53.0214 23.2559 53.9517 24.1861 53.9517 25.3489C53.9517 26.5117 53.0214 27.4419 51.8586 27.4419C50.6959 27.4419 49.7656 26.5117 49.7656 25.3489C49.7656 24.1861 50.6959 23.2559 51.8586 23.2559Z" fill="#E4E4E4"/>
<path fill-rule="evenodd" clip-rule="evenodd" d="M51.8586 0C53.0214 0 53.9517 0.930232 53.9517 2.09302C53.9517 3.25581 53.0214 4.18605 51.8586 4.18605C50.6959 4.18605 49.7656 3.25581 49.7656 2.09302C49.7656 0.930232 50.6959 0 51.8586 0Z" fill="#E4E4E4"/>
<path fill-rule="evenodd" clip-rule="evenodd" d="M26.9758 255.814C28.1386 255.814 29.0689 256.744 29.0689 257.907C29.0689 259.07 28.1386 260 26.9758 260C25.813 260 24.8828 259.07 24.8828 257.907C24.8828 256.744 25.813 255.814 26.9758 255.814Z" fill="#E4E4E4"/>
<path fill-rule="evenodd" clip-rule="evenodd" d="M26.9758 232.558C28.1386 232.558 29.0689 233.488 29.0689 234.651C29.0689 235.814 28.1386 236.744 26.9758 236.744C25.813 236.744 24.8828 235.814 24.8828 234.651C24.8828 233.488 25.813 232.558 26.9758 232.558Z" fill="#E4E4E4"/>
<path fill-rule="evenodd" clip-rule="evenodd" d="M26.9758 209.302C28.1386 209.302 29.0689 210.232 29.0689 211.395C29.0689 212.558 28.1386 213.488 26.9758 213.488C25.813 213.488 24.8828 212.558 24.8828 211.395C24.8828 210.232 25.813 209.302 26.9758 209.302Z" fill="#E4E4E4"/>
<path fill-rule="evenodd" clip-rule="evenodd" d="M26.9758 186.046C28.1386 186.046 29.0689 186.977 29.0689 188.139C29.0689 189.302 28.1386 190.232 26.9758 190.232C25.813 190.232 24.8828 189.302 24.8828 188.139C24.8828 186.977 25.813 186.046 26.9758 186.046Z" fill="#E4E4E4"/>
<path fill-rule="evenodd" clip-rule="evenodd" d="M26.9758 162.791C28.1386 162.791 29.0689 163.721 29.0689 164.884C29.0689 166.046 28.1386 166.977 26.9758 166.977C25.813 166.977 24.8828 166.046 24.8828 164.884C24.8828 163.721 25.813 162.791 26.9758 162.791Z" fill="#E4E4E4"/>
<path fill-rule="evenodd" clip-rule="evenodd" d="M26.9758 139.535C28.1386 139.535 29.0689 140.465 29.0689 141.628C29.0689 142.791 28.1386 143.721 26.9758 143.721C25.813 143.721 24.8828 142.791 24.8828 141.628C24.8828 140.465 25.813 139.535 26.9758 139.535Z" fill="#E4E4E4"/>
<path fill-rule="evenodd" clip-rule="evenodd" d="M26.9758 116.279C28.1386 116.279 29.0689 117.21 29.0689 118.372C29.0689 119.535 28.1386 120.465 26.9758 120.465C25.813 120.465 24.8828 119.535 24.8828 118.372C24.8828 117.21 25.813 116.279 26.9758 116.279Z" fill="#E4E4E4"/>
<path fill-rule="evenodd" clip-rule="evenodd" d="M26.9758 93.0234C28.1386 93.0234 29.0689 93.9537 29.0689 95.1165C29.0689 96.2793 28.1386 97.2095 26.9758 97.2095C25.813 97.2095 24.8828 96.2793 24.8828 95.1165C24.8828 93.9537 25.813 93.0234 26.9758 93.0234Z" fill="#E4E4E4"/>
<path fill-rule="evenodd" clip-rule="evenodd" d="M26.9758 69.7676C28.1386 69.7676 29.0689 70.6978 29.0689 71.8606C29.0689 73.0234 28.1386 73.9536 26.9758 73.9536C25.813 73.9536 24.8828 73.0234 24.8828 71.8606C24.8828 70.6978 25.813 69.7676 26.9758 69.7676Z" fill="#E4E4E4"/>
<path fill-rule="evenodd" clip-rule="evenodd" d="M26.9758 46.5117C28.1386 46.5117 29.0689 47.442 29.0689 48.6047C29.0689 49.7675 28.1386 50.6978 26.9758 50.6978C25.813 50.6978 24.8828 49.7675 24.8828 48.6047C24.8828 47.442 25.813 46.5117 26.9758 46.5117Z" fill="#E4E4E4"/>
<path fill-rule="evenodd" clip-rule="evenodd" d="M26.9758 23.2559C28.1386 23.2559 29.0689 24.1861 29.0689 25.3489C29.0689 26.5117 28.1386 27.4419 26.9758 27.4419C25.813 27.4419 24.8828 26.5117 24.8828 25.3489C24.8828 24.1861 25.813 23.2559 26.9758 23.2559Z" fill="#E4E4E4"/>
<path fill-rule="evenodd" clip-rule="evenodd" d="M26.9758 0C28.1386 0 29.0689 0.930232 29.0689 2.09302C29.0689 3.25581 28.1386 4.18605 26.9758 4.18605C25.813 4.18605 24.8828 3.25581 24.8828 2.09302C24.8828 0.930232 25.813 0 26.9758 0Z" fill="#E4E4E4"/>
<path fill-rule="evenodd" clip-rule="evenodd" d="M2.09302 255.814C3.25581 255.814 4.18605 256.744 4.18605 257.907C4.18605 259.07 3.25581 260 2.09302 260C0.930232 260 0 259.07 0 257.907C0 256.744 0.930232 255.814 2.09302 255.814Z" fill="#E4E4E4"/>
<path fill-rule="evenodd" clip-rule="evenodd" d="M2.09302 232.558C3.25581 232.558 4.18605 233.488 4.18605 234.651C4.18605 235.814 3.25581 236.744 2.09302 236.744C0.930232 236.744 0 235.814 0 234.651C0 233.488 0.930232 232.558 2.09302 232.558Z" fill="#E4E4E4"/>
<path fill-rule="evenodd" clip-rule="evenodd" d="M2.09302 209.302C3.25581 209.302 4.18605 210.232 4.18605 211.395C4.18605 212.558 3.25581 213.488 2.09302 213.488C0.930232 213.488 0 212.558 0 211.395C0 210.232 0.930232 209.302 2.09302 209.302Z" fill="#E4E4E4"/>
<path fill-rule="evenodd" clip-rule="evenodd" d="M2.09302 186.046C3.25581 186.046 4.18605 186.977 4.18605 188.139C4.18605 189.302 3.25581 190.232 2.09302 190.232C0.930232 190.232 0 189.302 0 188.139C0 186.977 0.930232 186.046 2.09302 186.046Z" fill="#E4E4E4"/>
<path fill-rule="evenodd" clip-rule="evenodd" d="M2.09302 162.791C3.25581 162.791 4.18605 163.721 4.18605 164.884C4.18605 166.046 3.25581 166.977 2.09302 166.977C0.930232 166.977 0 166.046 0 164.884C0 163.721 0.930232 162.791 2.09302 162.791Z" fill="#E4E4E4"/>
<path fill-rule="evenodd" clip-rule="evenodd" d="M2.09302 139.535C3.25581 139.535 4.18605 140.465 4.18605 141.628C4.18605 142.791 3.25581 143.721 2.09302 143.721C0.930232 143.721 0 142.791 0 141.628C0 140.465 0.930232 139.535 2.09302 139.535Z" fill="#E4E4E4"/>
<path fill-rule="evenodd" clip-rule="evenodd" d="M2.09302 116.279C3.25581 116.279 4.18605 117.21 4.18605 118.372C4.18605 119.535 3.25581 120.465 2.09302 120.465C0.930232 120.465 0 119.535 0 118.372C0 117.21 0.930232 116.279 2.09302 116.279Z" fill="#E4E4E4"/>
<path fill-rule="evenodd" clip-rule="evenodd" d="M2.09302 93.0234C3.25581 93.0234 4.18605 93.9537 4.18605 95.1165C4.18605 96.2793 3.25581 97.2095 2.09302 97.2095C0.930232 97.2095 0 96.2793 0 95.1165C0 93.9537 0.930232 93.0234 2.09302 93.0234Z" fill="#E4E4E4"/>
<path fill-rule="evenodd" clip-rule="evenodd" d="M2.09302 69.7676C3.25581 69.7676 4.18605 70.6978 4.18605 71.8606C4.18605 73.0234 3.25581 73.9536 2.09302 73.9536C0.930232 73.9536 0 73.0234 0 71.8606C0 70.6978 0.930232 69.7676 2.09302 69.7676Z" fill="#E4E4E4"/>
<path fill-rule="evenodd" clip-rule="evenodd" d="M2.09302 46.5117C3.25581 46.5117 4.18605 47.442 4.18605 48.6047C4.18605 49.7675 3.25581 50.6978 2.09302 50.6978C0.930232 50.6978 0 49.7675 0 48.6047C0 47.442 0.930232 46.5117 2.09302 46.5117Z" fill="#E4E4E4"/>
<path fill-rule="evenodd" clip-rule="evenodd" d="M2.09302 23.2559C3.25581 23.2559 4.18605 24.1861 4.18605 25.3489C4.18605 26.5117 3.25581 27.4419 2.09302 27.4419C0.930232 27.4419 0 26.5117 0 25.3489C0 24.1861 0.930232 23.2559 2.09302 23.2559Z" fill="#E4E4E4"/>
<path fill-rule="evenodd" clip-rule="evenodd" d="M2.09302 0C3.25581 0 4.18605 0.930232 4.18605 2.09302C4.18605 3.25581 3.25581 4.18605 2.09302 4.18605C0.930232 4.18605 0 3.25581 0 2.09302C0 0.930232 0.930232 0 2.09302 0Z" fill="#E4E4E4"/>
<path fill-rule="evenodd" clip-rule="evenodd" d="M2.09302 255.814C3.25581 255.814 4.18605 256.744 4.18605 257.907C4.18605 259.07 3.25581 260 2.09302 260C0.930232 260 0 259.07 0 257.907C0 256.744 0.930232 255.814 2.09302 255.814Z" fill="#E4E4E4"/>
<path fill-rule="evenodd" clip-rule="evenodd" d="M2.09302 232.558C3.25581 232.558 4.18605 233.488 4.18605 234.651C4.18605 235.814 3.25581 236.744 2.09302 236.744C0.930232 236.744 0 235.814 0 234.651C0 233.488 0.930232 232.558 2.09302 232.558Z" fill="#E4E4E4"/>
<path fill-rule="evenodd" clip-rule="evenodd" d="M2.09302 209.302C3.25581 209.302 4.18605 210.232 4.18605 211.395C4.18605 212.558 3.25581 213.488 2.09302 213.488C0.930232 213.488 0 212.558 0 211.395C0 210.232 0.930232 209.302 2.09302 209.302Z" fill="#E4E4E4"/>
<path fill-rule="evenodd" clip-rule="evenodd" d="M2.09302 186.046C3.25581 186.046 4.18605 186.977 4.18605 188.139C4.18605 189.302 3.25581 190.232 2.09302 190.232C0.930232 190.232 0 189.302 0 188.139C0 186.977 0.930232 186.046 2.09302 186.046Z" fill="#E4E4E4"/>
<path fill-rule="evenodd" clip-rule="evenodd" d="M2.09302 162.791C3.25581 162.791 4.18605 163.721 4.18605 164.884C4.18605 166.046 3.25581 166.977 2.09302 166.977C0.930232 166.977 0 166.046 0 164.884C0 163.721 0.930232 162.791 2.09302 162.791Z" fill="#E4E4E4"/>
<path fill-rule="evenodd" clip-rule="evenodd" d="M2.09302 139.535C3.25581 139.535 4.18605 140.465 4.18605 141.628C4.18605 142.791 3.25581 143.721 2.09302 143.721C0.930232 143.721 0 142.791 0 141.628C0 140.465 0.930232 139.535 2.09302 139.535Z" fill="#E4E4E4"/>
<path fill-rule="evenodd" clip-rule="evenodd" d="M2.09302 116.279C3.25581 116.279 4.18605 117.21 4.18605 118.372C4.18605 119.535 3.25581 120.465 2.09302 120.465C0.930232 120.465 0 119.535 0 118.372C0 117.21 0.930232 116.279 2.09302 116.279Z" fill="#E4E4E4"/>
<path fill-rule="evenodd" clip-rule="evenodd" d="M2.09302 93.0234C3.25581 93.0234 4.18605 93.9537 4.18605 95.1165C4.18605 96.2793 3.25581 97.2095 2.09302 97.2095C0.930232 97.2095 0 96.2793 0 95.1165C0 93.9537 0.930232 93.0234 2.09302 93.0234Z" fill="#E4E4E4"/>
<path fill-rule="evenodd" clip-rule="evenodd" d="M2.09302 69.7676C3.25581 69.7676 4.18605 70.6978 4.18605 71.8606C4.18605 73.0234 3.25581 73.9536 2.09302 73.9536C0.930232 73.9536 0 73.0234 0 71.8606C0 70.6978 0.930232 69.7676 2.09302 69.7676Z" fill="#E4E4E4"/>
<path fill-rule="evenodd" clip-rule="evenodd" d="M2.09302 46.5117C3.25581 46.5117 4.18605 47.442 4.18605 48.6047C4.18605 49.7675 3.25581 50.6978 2.09302 50.6978C0.930232 50.6978 0 49.7675 0 48.6047C0 47.442 0.930232 46.5117 2.09302 46.5117Z" fill="#E4E4E4"/>
<path fill-rule="evenodd" clip-rule="evenodd" d="M2.09302 23.2559C3.25581 23.2559 4.18605 24.1861 4.18605 25.3489C4.18605 26.5117 3.25581 27.4419 2.09302 27.4419C0.930232 27.4419 0 26.5117 0 25.3489C0 24.1861 0.930232 23.2559 2.09302 23.2559Z" fill="#E4E4E4"/>
<path fill-rule="evenodd" clip-rule="evenodd" d="M2.09302 0C3.25581 0 4.18605 0.930232 4.18605 2.09302C4.18605 3.25581 3.25581 4.18605 2.09302 4.18605C0.930232 4.18605 0 3.25581 0 2.09302C0 0.930232 0.930232 0 2.09302 0Z" fill="#E4E4E4"/>
</svg>
