<svg width="421" height="43" viewBox="0 0 421 43" fill="none" xmlns="http://www.w3.org/2000/svg">
<path d="M385.436 42.5259C372.636 43.5259 363.436 37.0259 355.336 28.3259C352.636 25.4259 350.036 22.3259 347.236 19.5259C335.336 7.72594 318.636 7.72594 306.836 19.5259C303.836 22.6259 300.936 25.8259 298.136 29.1259C281.636 48.2259 253.436 47.3259 237.736 27.7259C235.536 25.0259 232.936 22.6259 230.636 20.0259C220.036 7.42594 199.236 8.02594 189.236 20.2259C186.936 23.0259 184.036 25.3259 181.736 28.2259C166.336 47.8259 137.436 47.9259 121.036 28.3259C117.536 24.1259 113.936 19.9259 109.636 16.5259C99.7361 8.82594 85.0361 8.92594 75.6361 17.2259C71.8361 20.6259 68.0361 24.2259 64.8361 28.2259C49.3361 47.7259 20.3361 48.0259 4.03609 28.3259C3.63609 27.8259 3.23609 27.3259 2.73609 26.8259C0.136094 24.1259 -1.36391 20.8259 1.73609 18.1259C4.73609 15.4259 7.83609 16.8259 10.3361 19.8259C11.8361 21.6259 13.6361 23.1259 15.3361 24.7259C26.4361 35.4259 41.7361 35.7259 52.9361 25.3259C56.7361 21.8259 60.1361 17.9259 63.6361 14.1259C80.8361 -4.37406 104.436 -4.67406 121.836 13.5259C125.536 17.3259 128.936 21.4259 132.836 25.1259C143.836 35.5259 159.036 35.6259 170.136 25.2259C174.036 21.6259 177.436 17.5259 181.136 13.6259C198.136 -4.37406 221.336 -4.57406 238.636 13.2259C242.336 17.0259 245.736 21.1259 249.636 24.8259C260.936 35.6259 276.236 35.7259 287.636 24.9259C292.336 20.5259 296.336 15.3259 301.136 10.9259C317.636 -4.17406 339.436 -3.37406 355.136 12.5259C359.136 16.5259 362.736 20.9259 366.736 24.8259C377.836 35.5259 393.536 35.5259 404.836 24.9259C406.736 23.1259 408.536 21.1259 410.436 19.2259C412.836 16.8259 415.736 15.9259 418.436 18.3259C421.136 20.6259 420.236 23.5259 418.236 25.9259C409.436 35.8259 399.736 43.8259 385.436 42.5259Z" fill="#F3EDED"/>
</svg>
